<?xml version="1.0" encoding="UTF-8"?>
<svg version="1.1" viewBox="0 0 800 800" xmlns="http://www.w3.org/2000/svg">
<circle cx="397.2" cy="408.4" r="347.72" fill="#00aad4" stroke-width="1.0016"/>
<path d="m267.23 162.2 114.29-0.19751c13.564 38.305 16.159 74.027 17.677 109.49l-112.25-1.3285c-3.5955-37.085-7.7236-76.822-19.717-107.97z" fill="#00aad4"/>
<path d="m400.75 163.28 160.12-2.5418c9.8758 41.961 9.6783 77.726 10.605 113.29l-156.82-2.4424c-2.3314-45.593-3.6804-80.224-13.904-108.3z" fill="#00aad4"/>
<path d="m192.69 178.53 334.93 0.0804c2.3116 6.8114 62.089 57.428 69.683 64.461l0.0193 388.74c0.34385 11.356-3.1953 14.65-13.997 14.168l-377.89-0.25611c-18.816-1.4583-16.99-11.84-17.25-22.854l-0.21041-440.42c0.0587-2.2693 0.52487-3.9327 4.7128-3.9124z" fill="#fff" stroke-width="10.915"/>
<rect x="200.75" y="189.52" width="156.76" height="152.69" ry="1.6521" fill="#009cd4" stroke-width="10.456"/>
<rect x="201.23" y="357.98" width="387.76" height="166.25" ry="1.7988" fill="#009cd4" stroke-width="10.915"/>
<rect x="201.23" y="540" width="387.76" height="87.739" ry=".94937" fill="#009cd4" stroke-width="10.915"/>
<path d="m374.38 187.49h167.79c1.7167 0.80131 47.307 41.647 47.205 43.544-0.0931 1.7672-0.45974-35.438-0.12755-33.971v143.21c-1.5708 3.2673-6.6288 0.99517-9.7164 1.6712h-205.15c-3.3161-1.5478-1.0102-6.5316-1.6963-9.5738v-143.21c-0.028-0.89611 0.78673-1.6953 1.6963-1.6712z" fill="#009cd4" stroke-width="10.641"/>
<path d="m526.84 178.31-0.0949 55.456c0.25539 7.4079 2.188 8.6896 13.897 9.3926l55.881-0.38659z" fill="#fff" stroke-width="10.915"/>
<rect x="218.45" y="375.41" width="351.71" height="32.434" ry="2.0807" fill="#fff" stroke-width="10.915"/>
<rect x="218.45" y="425.5" width="351.71" height="32.434" ry="2.0807" fill="#fff" stroke-width="10.915"/>
<rect x="218.45" y="475.59" width="351.71" height="32.434" ry="2.0807" fill="#fff" stroke-width="10.915"/>
<rect x="439.93" y="549.11" width="139.84" height="70.481" ry="4.5216" fill="#fff" stroke-width="10.915"/>
<rect x="209.41" y="201.24" width="137.94" height="126.3" ry="8.1024" fill="#fff" stroke-width="14.511"/>
</svg>
