<?xml version="1.0" encoding="UTF-8"?>
<svg width="200mm" height="200mm" version="1.1" viewBox="0 0 250 200" xmlns="http://www.w3.org/2000/svg" xmlnsCc="http://creativecommons.org/ns#" xmlnsDc="http://purl.org/dc/elements/1.1/" xmlnsOsb="http://www.openswatchbook.org/uri/2009/osb" xmlnsRdf="http://www.w3.org/1999/02/22-rdf-syntax-ns#" xmlnsXlink="http://www.w3.org/1999/xlink">
<metadata>
<rdfRDF>
<ccWork rdfAbout="">
<dcFormat>image/svg+xml</dcFormat>
<dcType rdfResource="http://purl.org/dc/dcmitype/StillImage"/>
<dcTitle/>
</ccWork>
</rdfRDF>
</metadata>
<g transform="matrix(2.0166 0 0 2.0568 -27.6 -212.89)">
<path d="m53.69 99.733h-9.3648c-5.6497 0.79575-8.071 4.1127-8.2399 8.6571l0.14994 89.829c0.77607 3.3914 3.7313 6.1517 7.94 7.0957l71.164 0.14207v-19.896l-61.564 0.28948z" stroke-width="1.5431"/>
<path d="m53.245 99.733 0.08665 90.179 62.008-0.30312v-89.875z" fill="#666" stroke-width="1.579"/>
<path d="m115.34 189.61s0.62753 12.569-0.28272 12.694c-0.54805 0.0751-68.978-0.26005-68.978-0.26005-3.7736-0.18537-6.4698-3.735-6.5465-6.2951 0.20443-3.0727 1.7024-5.4097 6.6746-5.9977z" fill="#fff" stroke-width="1.3664"/>
<flowRoot transform="scale(.26458)" fill="#000000" font-family="sans-serif" font-size="40px" letter-spacing="0px" word-spacing="0px" style="line-height:1.25" xmlSpace="preserve"><flowRegion><rect x="-273.93" y="476.81" width="33.214" height="40"/></flowRegion><flowPara>dD H</flowPara></flowRoot>
<path d="m68.688 116.85c-0.22913 0-0.4139 0.17443-0.4139 0.39147v11.614h-11.549c-0.24663 0-0.44539 0.18804-0.44539 0.42165v9.4458c0 0.23362 0.19876 0.42166 0.44539 0.42166h11.549v11.91c0 0.21705 0.18477 0.39195 0.4139 0.39195h9.2643c0.22914 0 0.4134-0.1749 0.4134-0.39195v-11.91h11.402c0.24663 0 0.44488-0.18804 0.44488-0.42166v-9.4458c0-0.23361-0.19825-0.42165-0.44488-0.42165h-11.402v-11.614c0-0.21704-0.18426-0.39147-0.4134-0.39147zm22.085 22.59c-0.22913 0-0.4134 0.1749-0.4134 0.39194v11.614h-11.549c-0.24663 0-0.44539 0.18805-0.44539 0.42166v9.4453c0 0.23361 0.19876 0.42165 0.44539 0.42165h11.549v11.91c0 0.21704 0.18426 0.39196 0.4134 0.39196h9.2643c0.22913 0 0.4139-0.17492 0.4139-0.39196v-11.91h11.401c0.24663 0 0.44539-0.18804 0.44539-0.42165v-9.4453c0-0.23361-0.19876-0.42166-0.44539-0.42166h-11.401v-11.614c0-0.21704-0.18477-0.39194-0.4139-0.39194z" fill="#fff" stroke-width="1.7064"/>
</g>
</svg>
