<?xml version="1.0" encoding="UTF-8" standalone="no"?>
<!-- Created with Inkscape (http://www.inkscape.org/) -->

<svg
   version="1.1"
   id="svg200"
   width="400"
   height="400"
   viewBox="0 0 400 400"
   xmlnsSvg="http://www.w3.org/2000/svg"
   xmlns="http://www.w3.org/2000/svg"
   xmlns:svg="http://www.w3.org/2000/svg">
  <defs
     id="defs204">
    <filter
       style="color-interpolation-filtersSRGB"
       id="filter19280"
       x="-0.11603858"
       y="-0.08784318"
       width="1.2826878"
       height="1.2139994">
      <feColorMatrix
         values="0 0 0 0 0 0 0 0 0 0 0 0 0 0 0 0.21 0.72 0.07 0 0 "
         result="result1"
         id="feColorMatrix19252" />
      <feColorMatrix
         values="1 0 0 0 0 0 1 0 0 0 0 0 1 0 0 0 0 0 2 0 "
         result="result9"
         id="feColorMatrix19254" />
      <feComposite
         in2="result9"
         in="SourceGraphic"
         operator="in"
         result="result4"
         id="feComposite19256" />
      <feFlood
         result="result2"
         flood-color="rgb(0,0,0)"
         id="feFlood19258" />
      <feComposite
         in2="result9"
         operator="in"
         result="result10"
         id="feComposite19260" />
      <feComposite
         in2="result4"
         operator="atop"
         id="feComposite19262" />
      <feGaussianBlur
         stdDeviation="2.7319329"
         result="result8"
         id="feGaussianBlur19264" />
      <feOffset
         dx="3"
         dy="3"
         result="result3"
         in="result8"
         id="feOffset19266" />
      <feFlood
         flood-opacity="1"
         flood-color="rgb(219,173,62)"
         result="result5"
         id="feFlood19268" />
      <feMerge
         result="result6"
         id="feMerge19276">
        <feMergeNode
           in="result5"
           id="feMergeNode19270" />
        <feMergeNode
           in="result3"
           id="feMergeNode19272" />
        <feMergeNode
           in="result4"
           id="feMergeNode19274" />
      </feMerge>
      <feComposite
         in2="SourceGraphic"
         operator="in"
         result="fbSourceGraphic"
         id="feComposite19278" />
      <feColorMatrix
         result="fbSourceGraphicAlpha"
         in="fbSourceGraphic"
         values="0 0 0 -1 0 0 0 0 -1 0 0 0 0 -1 0 0 0 0 1 0"
         id="feColorMatrix21628" />
      <feColorMatrix
         id="feColorMatrix21630"
         values="0 0 0 0 0 0 0 0 0 0 0 0 0 0 0 0.21 0.72 0.07 0 0 "
         result="result1"
         in="fbSourceGraphic" />
      <feColorMatrix
         id="feColorMatrix21632"
         values="1 0 0 0 0 0 1 0 0 0 0 0 1 0 0 0 0 0 2 0 "
         result="result9" />
      <feComposite
         in2="result9"
         id="feComposite21634"
         in="fbSourceGraphic"
         operator="in"
         result="result4" />
      <feFlood
         id="feFlood21636"
         result="result2"
         flood-color="rgb(0,0,0)" />
      <feComposite
         in2="result9"
         id="feComposite21638"
         operator="in"
         result="result10" />
      <feComposite
         in2="result4"
         id="feComposite21640"
         operator="atop" />
      <feGaussianBlur
         id="feGaussianBlur21642"
         stdDeviation="3"
         result="result8" />
      <feOffset
         id="feOffset21644"
         dx="3"
         dy="3"
         result="result3"
         in="result8" />
      <feFlood
         id="feFlood21646"
         flood-opacity="1"
         flood-color="rgb(219,173,62)"
         result="result5" />
      <feMerge
         id="feMerge21648"
         result="result6">
        <feMergeNode
           id="feMergeNode21650"
           in="result5" />
        <feMergeNode
           id="feMergeNode21652"
           in="result3" />
        <feMergeNode
           id="feMergeNode21654"
           in="result4" />
      </feMerge>
      <feComposite
         in2="fbSourceGraphic"
         id="feComposite21656"
         operator="in"
         result="result7" />
    </filter>
    <filter
       style="color-interpolation-filtersSRGB"
       id="filter21626"
       x="-0.06146815"
       y="-0.18905672"
       width="1.148548"
       height="1.4568871">
      <feColorMatrix
         values="0 0 0 0 0 0 0 0 0 0 0 0 0 0 0 0.21 0.72 0.07 0 0 "
         result="result1"
         id="feColorMatrix21598" />
      <feColorMatrix
         values="1 0 0 0 0 0 1 0 0 0 0 0 1 0 0 0 0 0 2 0 "
         result="result9"
         id="feColorMatrix21600" />
      <feComposite
         in2="result9"
         in="SourceGraphic"
         operator="in"
         result="result4"
         id="feComposite21602" />
      <feFlood
         result="result2"
         flood-color="rgb(0,0,0)"
         id="feFlood21604" />
      <feComposite
         in2="result9"
         operator="in"
         result="result10"
         id="feComposite21606" />
      <feComposite
         in2="result4"
         operator="atop"
         id="feComposite21608" />
      <feGaussianBlur
         stdDeviation="3"
         result="result8"
         id="feGaussianBlur21610" />
      <feOffset
         dx="3"
         dy="3"
         result="result3"
         in="result8"
         id="feOffset21612" />
      <feFlood
         flood-opacity="1"
         flood-color="rgb(219,173,62)"
         result="result5"
         id="feFlood21614" />
      <feMerge
         result="result6"
         id="feMerge21622">
        <feMergeNode
           in="result5"
           id="feMergeNode21616" />
        <feMergeNode
           in="result3"
           id="feMergeNode21618" />
        <feMergeNode
           in="result4"
           id="feMergeNode21620" />
      </feMerge>
      <feComposite
         in2="SourceGraphic"
         operator="in"
         result="result7"
         id="feComposite21624" />
    </filter>
    <filter
       id="a"
       x="-0.025194325"
       y="-0.02291389"
       width="1.0503886"
       height="1.0458277"
       color-interpolation-filters="sRGB">
      <feGaussianBlur
         stdDeviation="0.4013645"
         id="feGaussianBlur8443" />
    </filter>
  </defs>
  <g
     id="g206">
    <path
       id="path336-36"
       style="fill:#ffffff;stroke-width:0.469122"
       d="m 325.13951,313.37871 a 122.70669,111.44785 0 0 0 0.45672,-5.80456 122.70669,111.44785 0 0 0 -0.13863,-5.30305 122.70669,111.44785 0 0 0 -0.41681,-5.29014 122.70669,111.44785 0 0 0 -0.69324,-5.26706 122.70669,111.44785 0 0 0 -0.96869,-5.23103 122.70669,111.44785 0 0 0 -1.24145,-5.18299 122.70669,111.44785 0 0 0 -1.51146,-5.12393 122.70669,111.44785 0 0 0 -1.77787,-5.05276 122.70669,111.44785 0 0 0 -2.04158,-4.96968 122.70669,111.44785 0 0 0 -2.29894,-4.87638 122.70669,111.44785 0 0 0 -2.55174,-4.77108 122.70669,111.44785 0 0 0 -2.79912,-4.65565 122.70669,111.44785 0 0 0 -3.03927,-4.52912 122.70669,111.44785 0 0 0 -3.27393,-4.3934 122.70669,111.44785 0 0 0 -3.4996,-4.24559 122.70669,111.44785 0 0 0 -3.71887,-4.09044 122.70669,111.44785 0 0 0 -3.9282,-3.92513 122.70669,111.44785 0 0 0 -4.12937,-3.75055 122.70669,111.44785 0 0 0 -4.32145,-3.56863 122.70669,111.44785 0 0 0 -4.50364,-3.37742 122.70669,111.44785 0 0 0 -4.67576,-3.17796 122.70669,111.44785 0 0 0 -4.83616,-2.97387 122.70669,111.44785 0 0 0 -4.9875,-2.76052 122.70669,111.44785 0 0 0 -5.12612,-2.54258 122.70669,111.44785 0 0 0 -5.25302,-2.31716 122.70669,111.44785 0 0 0 -5.36901,-2.0882 122.70669,111.44785 0 0 0 -5.47135,-1.85357 122.70669,111.44785 0 0 0 -5.56294,-1.6153 122.70669,111.44785 0 0 0 -5.64172,-1.37238 122.70669,111.44785 0 0 0 -5.707,-1.12768 122.70669,111.44785 0 0 0 -5.75864,-0.88014 122.70669,111.44785 0 0 0 -5.79941,-0.6299 122.70669,111.44785 0 0 0 -5.82572,-0.37772 122.70669,111.44785 0 0 0 -5.83839,-0.12654 122.70669,111.44785 0 0 0 -17.46255,1.13416 122.70669,111.44785 0 0 0 -17.1074,3.3802 122.70669,111.44785 0 0 0 -16.40418,5.55707 122.70669,111.44785 0 0 0 -15.36572,7.62026 122.70669,111.44785 0 0 0 -14.01556,9.52925 122.70669,111.44785 0 0 0 -12.37994,11.24431 122.70669,111.44785 0 0 0 -10.491516,12.72943 122.70669,111.44785 0 0 0 -8.391017,13.95585 122.70669,111.44785 0 0 0 -6.11838,14.89882 122.70669,111.44785 0 0 0 -3.7216,15.53795 122.70669,111.44785 0 0 0 -1.24868,15.86025 122.70669,111.44785 0 0 0 0.15765,2.00044 161.32422,164.42176 0 0 0 123.928083,59.48267 161.32422,164.42176 0 0 0 120.87069,-55.67855 z" />
    <path
       id="path915"
       style="fill:#00aad4;fill-opacity:1;stroke-width:0.469122"
       d="M 204.26882,40.213463 A 161.32422,164.42176 0 0 0 42.944477,204.63537 a 161.32422,164.42176 0 0 0 37.39626,104.93922 122.70669,111.44785 0 0 1 -0.15765,-2.00044 122.70669,111.44785 0 0 1 1.24868,-15.86025 122.70669,111.44785 0 0 1 3.7216,-15.53795 122.70669,111.44785 0 0 1 6.11838,-14.89882 122.70669,111.44785 0 0 1 8.391017,-13.95585 122.70669,111.44785 0 0 1 10.491516,-12.72943 122.70669,111.44785 0 0 1 12.37994,-11.24431 122.70669,111.44785 0 0 1 14.01556,-9.52925 122.70669,111.44785 0 0 1 15.36572,-7.62026 122.70669,111.44785 0 0 1 16.40418,-5.55707 122.70669,111.44785 0 0 1 17.1074,-3.3802 122.70669,111.44785 0 0 1 17.46255,-1.13416 122.70669,111.44785 0 0 1 5.83839,0.12654 122.70669,111.44785 0 0 1 5.82572,0.37772 122.70669,111.44785 0 0 1 5.79941,0.6299 122.70669,111.44785 0 0 1 5.75864,0.88014 122.70669,111.44785 0 0 1 5.707,1.12768 122.70669,111.44785 0 0 1 5.64172,1.37238 122.70669,111.44785 0 0 1 5.56294,1.6153 122.70669,111.44785 0 0 1 5.47135,1.85357 122.70669,111.44785 0 0 1 5.36901,2.0882 122.70669,111.44785 0 0 1 5.25302,2.31716 122.70669,111.44785 0 0 1 5.12612,2.54258 122.70669,111.44785 0 0 1 4.9875,2.76052 122.70669,111.44785 0 0 1 4.83616,2.97387 122.70669,111.44785 0 0 1 4.67576,3.17796 122.70669,111.44785 0 0 1 4.50364,3.37742 122.70669,111.44785 0 0 1 4.32145,3.56863 122.70669,111.44785 0 0 1 4.12937,3.75055 122.70669,111.44785 0 0 1 3.9282,3.92513 122.70669,111.44785 0 0 1 3.71887,4.09044 122.70669,111.44785 0 0 1 3.4996,4.24559 122.70669,111.44785 0 0 1 3.27393,4.3934 122.70669,111.44785 0 0 1 3.03927,4.52912 122.70669,111.44785 0 0 1 2.79912,4.65565 122.70669,111.44785 0 0 1 2.55174,4.77108 122.70669,111.44785 0 0 1 2.29894,4.87638 122.70669,111.44785 0 0 1 2.04158,4.96968 122.70669,111.44785 0 0 1 1.77787,5.05276 122.70669,111.44785 0 0 1 1.51146,5.12393 122.70669,111.44785 0 0 1 1.24145,5.18299 122.70669,111.44785 0 0 1 0.96869,5.23103 122.70669,111.44785 0 0 1 0.69324,5.26706 122.70669,111.44785 0 0 1 0.41681,5.29014 122.70669,111.44785 0 0 1 0.13863,5.30305 122.70669,111.44785 0 0 1 -0.45672,5.80456 A 161.32422,164.42176 0 0 0 365.59318,204.63537 161.32422,164.42176 0 0 0 204.26882,40.213463 Z" />
    <path
       d="m -2416.6632,215.69308 c -4.7621,0 -8.5969,3.83322 -8.5969,8.59398 v 23.57205 c -23.8976,1.82183 -47.0033,13.43536 -60.3237,34.57122 -8.1742,11.02587 -12.5728,23.76743 -13.7494,36.81086 h -19.6572 c -4.7623,0 -8.5939,3.83011 -8.5939,8.59086 0,4.76063 3.8316,8.59398 8.5939,8.59398 h 19.9132 c 3.7545,31.07002 24.7438,60.37098 56.3271,68.85178 5.7588,2.01768 11.6244,3.21898 17.49,3.70181 v 17.35233 c 0,4.76063 3.8348,8.59397 8.5969,8.59397 4.7625,0 8.5969,-3.83321 8.5969,-8.59397 v -17.99087 c 35.3983,-5.37235 66.8696,-35.32055 69.8698,-71.91576 h 21.3185 c 4.7621,0 8.5968,-3.83322 8.5968,-8.59398 0,-4.76075 -3.8344,-8.59086 -8.5968,-8.59086 h -21.62 c -1.6594,-15.03289 -7.581,-29.58092 -17.0261,-41.41639 -12.705,-17.30944 -32.1219,-27.09947 -52.5422,-29.59283 v -23.94492 c 0,-4.76076 -3.8344,-8.59397 -8.5969,-8.59397 z m -8.5969,50.06159 v 13.02554 c -13.8129,1.6995 -26.9181,8.78088 -34.6553,21.11205 -4.3191,5.8521 -6.9234,12.48592 -8.0352,19.34893 h -14.4094 c 0,-0.0488 0,-0.0978 0,-0.1464 0.2767,-2.38414 0.7003,-4.75217 1.276,-7.08938 0.5759,-2.33719 1.3035,-4.64232 2.1888,-6.90316 0.8857,-2.26084 1.9295,-4.47639 3.1355,-6.63156 1.2059,-2.15516 2.5753,-4.25147 4.1121,-6.27143 1.3763,-2.1274 2.8838,-4.12686 4.5092,-6.0029 1.6251,-1.87604 3.3685,-3.62867 5.2111,-5.25216 1.8423,-1.62349 3.7848,-3.11927 5.8125,-4.48926 2.0278,-1.36998 4.1382,-2.61404 6.3195,-3.72933 2.181,-1.11517 4.432,-2.10084 6.7345,-2.96023 2.3022,-0.8594 4.6571,-1.59181 7.0491,-2.19425 2.3915,-0.60243 4.8196,-1.07465 7.2687,-1.41905 1.1525,-0.16214 2.3107,-0.29151 3.4712,-0.3967 z m 17.1934,0.57061 c 0.5013,0.0786 1.006,0.13927 1.5049,0.22885 2.4294,0.43625 4.8305,1.00425 7.1896,1.70295 2.3587,0.69858 4.6762,1.5282 6.9329,2.49028 2.2567,0.96219 4.4536,2.05699 6.5758,3.28378 2.1221,1.2268 4.1684,2.58475 6.1239,4.0772 1.9558,1.49256 3.82,3.12046 5.5778,4.87987 1.7574,1.7593 3.4092,3.65214 4.9364,5.67937 2.2213,2.71244 4.1947,5.61061 5.9072,8.64887 1.7123,3.03827 3.1638,6.21509 4.3351,9.48804 1.1709,3.27293 2.0614,6.64214 2.6589,10.05877 0.1368,0.79018 0.2577,1.58251 0.3632,2.37734 h -13.985 c -1.455,-8.06813 -4.8821,-15.77864 -9.9797,-22.19611 -6.9419,-9.50043 -17.1449,-15.3188 -28.1406,-17.58464 z m -17.1934,23.56014 v 21.53614 c -0.2321,0.1096 -0.4729,0.1974 -0.6989,0.31736 -0.6215,0.33 -1.2238,0.69942 -1.8014,1.1048 -0.5774,0.40539 -1.1296,0.84713 -1.6546,1.32758 -0.5248,0.48045 -1.0206,0.99817 -1.4835,1.55344 -0.4632,0.55514 -0.8935,1.14662 -1.2853,1.77621 -0.4105,0.56038 -0.7718,1.14376 -1.099,1.73953 h -24.0866 c 0.076,-0.35929 0.14,-0.72025 0.229,-1.07729 0.354,-1.44396 0.8018,-2.8666 1.3462,-4.26339 0.5448,-1.39677 1.185,-2.76713 1.9263,-4.09863 0.742,-1.3315 1.5857,-2.62786 2.5308,-3.87573 0.8463,-1.31436 1.7727,-2.5489 2.7722,-3.7079 0.9996,-1.15912 2.0723,-2.24105 3.2054,-3.24411 1.1332,-1.00307 2.3276,-1.92775 3.5749,-2.77405 1.247,-0.84641 2.5449,-1.61516 3.8863,-2.30407 1.3411,-0.68905 2.7264,-1.29708 4.1426,-1.82803 1.4158,-0.53097 2.8641,-0.98283 4.335,-1.35498 1.37,-0.34667 2.7598,-0.61876 4.161,-0.82711 z m 17.1934,0.93695 c 0.3908,0.10362 0.7849,0.19906 1.1722,0.31439 1.4509,0.4316 2.8769,0.94362 4.2648,1.53807 1.3879,0.59446 2.7397,1.26849 4.0449,2.02639 1.3052,0.75801 2.5613,1.59871 3.7641,2.52077 1.2031,0.92217 2.3508,1.92822 3.4315,3.01514 1.081,1.08693 2.0955,2.25704 3.0346,3.50954 1.3663,1.67579 2.5827,3.46357 3.636,5.34068 1.0532,1.87712 1.9447,3.84036 2.665,5.86257 0.4993,1.40216 0.8841,2.84159 1.2152,4.29079 h -20.3809 c -0.038,-0.0739 -0.07,-0.15237 -0.1078,-0.22587 -0.4878,-0.89907 -1.0491,-1.75476 -1.682,-2.55745 -0.4351,-0.59994 -0.9067,-1.16091 -1.4073,-1.6815 -0.5009,-0.52061 -1.0307,-1.00189 -1.5876,-1.44349 -0.5572,-0.44173 -1.1417,-0.84249 -1.7462,-1.20548 -0.1013,-0.0607 -0.21,-0.10595 -0.3149,-0.16475 z m -73.7752,45.60377 h 14.1136 c 3.2782,17.9849 15.8048,34.41637 34.1554,39.36498 2.7414,0.96483 5.5235,1.62087 8.3128,2.01113 v 11.3711 c -1.765,-0.17606 -3.5291,-0.40325 -5.2874,-0.74776 -2.4692,-0.48379 -4.9269,-1.13757 -7.3603,-1.96837 -2.4924,-0.65211 -4.9004,-1.46493 -7.2199,-2.4231 -2.3196,-0.95826 -4.5496,-2.06092 -6.6858,-3.29593 -2.1361,-1.235 -4.1784,-2.60107 -6.121,-4.08327 -1.9425,-1.48232 -3.7873,-3.08199 -5.5257,-4.78219 -1.738,-1.70021 -3.3703,-3.50084 -4.8937,-5.38951 -1.523,-1.88867 -2.9364,-3.86371 -4.2342,-5.91142 -1.2979,-2.04771 -2.4796,-4.16738 -3.5412,-6.34469 -1.0619,-2.17733 -2.0025,-4.41206 -2.818,-6.68957 -0.815,-2.2775 -1.5055,-4.60064 -2.0637,-6.94904 -0.3275,-1.3788 -0.5946,-2.76772 -0.8303,-4.1626 z m 24.899,0 h 23.7847 c 0.2258,0.44197 0.4444,0.88667 0.7022,1.30923 0.3696,0.60589 0.7719,1.18985 1.2056,1.74868 0.4342,0.55884 0.9004,1.09302 1.3952,1.5961 0.4952,0.50308 1.0222,0.97436 1.5755,1.41299 0.5534,0.43863 1.1348,0.84308 1.7431,1.20856 0.4077,0.24469 0.845,0.44448 1.2762,0.65307 v 21.15493 c -0.2671,-0.0465 -0.5377,-0.0786 -0.8061,-0.13129 -1.5182,-0.2989 -3.0305,-0.7013 -4.5274,-1.21463 -1.5329,-0.4029 -3.0152,-0.90645 -4.4419,-1.49842 -1.4266,-0.59193 -2.7983,-1.27253 -4.112,-2.03555 -1.3141,-0.76301 -2.5697,-1.608 -3.7641,-2.52386 -1.1948,-0.91574 -2.3289,-1.90379 -3.3981,-2.95416 -1.069,-1.05036 -2.0732,-2.16266 -3.0101,-3.32953 -0.9367,-1.16688 -1.8058,-2.38794 -2.604,-3.65298 -0.7982,-1.26514 -1.5237,-2.57331 -2.1766,-3.9185 -0.6529,-1.34521 -1.2327,-2.72805 -1.7341,-4.13521 -0.4317,-1.21119 -0.7933,-2.44465 -1.1081,-3.68967 z m 55.7875,0 h 20.4022 c 0,0.0584 -0.032,0.11911 -0.035,0.17702 -0.3565,1.45385 -0.808,2.8791 -1.3493,4.26649 -0.541,1.38737 -1.1739,2.73733 -1.8837,4.04669 -0.7098,1.30947 -1.4969,2.57937 -2.3597,3.79949 -0.8629,1.22012 -1.8001,2.3902 -2.7996,3.50955 -0.9995,1.11945 -2.0631,2.18792 -3.1841,3.19527 -1.1207,1.00735 -2.2968,1.95431 -3.5227,2.83812 -1.226,0.88394 -2.5038,1.70451 -3.8192,2.4537 -1.3153,0.7491 -2.6682,1.42658 -4.057,2.02949 -1.3892,0.60291 -2.8122,1.12946 -4.2589,1.57477 0,0.005 -0.032,0.007 -0.041,0.0125 v -20.72539 c 0.535,-0.32404 1.0612,-0.66342 1.5631,-1.03761 0.5679,-0.42339 1.1143,-0.8756 1.6333,-1.35808 0.5191,-0.48247 1.0114,-0.99579 1.4744,-1.53199 0.4631,-0.53621 0.8981,-1.09718 1.2976,-1.68152 0.3447,-0.50403 0.6509,-1.03236 0.9432,-1.56868 z m 31.499,0 h 13.7352 c -0.2544,1.83125 -0.5692,3.64738 -1.0075,5.42609 -0.5797,2.35327 -1.3151,4.65769 -2.195,6.90316 -0.8797,2.24559 -1.9047,4.43279 -3.0588,6.55223 -1.1541,2.11942 -2.438,4.17152 -3.8405,6.14632 -1.4025,1.97493 -2.9232,3.87063 -4.5486,5.68247 -1.6255,1.81194 -3.3555,3.53932 -5.1778,5.16972 -1.8222,1.6305 -3.7368,3.16537 -5.7301,4.59599 -1.9934,1.43073 -4.0679,2.75796 -6.2066,3.97044 -2.1388,1.21249 -4.342,2.311 -6.6003,3.28677 -2.2583,0.97579 -4.5715,1.82756 -6.9236,2.5483 -2.2523,0.69023 -4.5418,1.25085 -6.8567,1.69067 v -11.53276 c 19.008,-4.64757 35.3309,-20.7201 38.4103,-40.43951 z"
       id="path50668"
       style="fill:#ffffff;stroke-width:11.9663" />
    <ellipse
       style="fill:#ffffff;stroke-width:2.85446"
       id="path307"
       cx="205.68396"
       cy="122.90044"
       rx="59.881016"
       ry="58.973629" />
  </g>
</svg>
