<?xml version="1.0" encoding="UTF-8"?>
<svg version="1.1" viewBox="0 0 800 800" xmlns="http://www.w3.org/2000/svg">
<circle cx="400.73" cy="403.78" r="347.72" fill="#00aad4" stroke-width="1.0016"/>
<path d="m368.88 720.73c-89.673-13.633-160.77-83.265-173.83-170.24-3.1196-20.784-1.3016-58.826 3.7148-77.736 20.339-76.674 80.722-132.93 160.11-149.18 14.603-2.9881 21.782-3.3932 46.377-2.6178 36.968 1.1656 55.898 5.6962 86.333 20.663 5.975 2.9382 11.296 5.3422 11.825 5.3422 0.5287 0 0.9613-24.8 0.9613-55.11 0-44.544-0.5528-57.197-2.883-65.996-8.6762-32.761-36.278-61.172-69.865-71.914-57.671-18.444-119.8 15.05-135.68 73.144-1.4066 5.1466-2.5087 17.858-2.5209 29.076l-0.0216 19.932h-69.11l7e-3 -17.274c0.0199-49.56 16.349-90.227 49.876-124.21 25.359-25.707 54.759-41.604 90.73-49.06 15.898-3.2954 51.964-3.3079 67.991-0.0235 66.266 13.579 116.9 60.775 135.49 126.28 3.7129 13.087 3.9686 18.73 4.9613 109.47l1.0466 95.672 7.5825 14.174c44.183 82.59 20.552 188.68-55.091 247.32-23.612 18.306-52.126 31.976-81.078 38.869-17.485 4.1631-59.684 6.0366-76.926 3.4153zm63.712-69.046c48.399-12.059 86.123-48.909 99.369-97.069 5.6679-20.607 5.2387-49.389-1.0435-69.982-9.1797-30.091-23.992-51.618-48.286-70.173-43.914-33.542-106.3-37.146-155.01-8.9541-15.198 8.7955-34.258 26.694-44.258 41.561-15.272 22.705-24.159 56.016-22.119 82.914 1.5106 19.919 5.244 32.853 15.19 52.622 7.2851 14.481 10.903 19.182 25.906 33.662 19.753 19.066 33.597 27.212 58.359 34.339 20.542 5.9128 50.683 6.3657 71.896 1.0803z" fill="#fff" stroke-width="1.7979"/>
<path d="m379.54 573.71c-12.261-4.7357-24.032-15.017-30.676-26.795-4.7348-8.3932-5.3574-11.24-5.3948-24.668-0.0373-13.422 0.58991-16.384 5.4187-25.587 6.3951-12.188 20.543-24.373 32.25-27.777 11.791-3.4282 29.922-2.6802 39.903 1.6462 11.204 4.8565 23.367 15.971 28.557 26.093 14.204 27.706 2.0999 62.031-26.657 75.593-11.815 5.5718-31.123 6.2367-43.401 1.4945z" fill="#fff" stroke-width="1.7979"/>
</svg>