<?xml version="1.0" encoding="UTF-8"?>
<svg version="1.1" viewBox="0 0 800 800" xmlns="http://www.w3.org/2000/svg">
<circle cx="399.1" cy="396.88" r="347.72" fill="#00aad4" stroke-width="1.0016"/>
<path d="m475.59 232.21c-9.6895 0-17.491 7.7324-17.491 17.336v47.55c-48.622 3.675-95.634 27.103-122.73 69.737-16.632 22.241-25.579 47.943-27.976 74.255h-39.995c-9.6896 0-17.485 7.7262-17.485 17.33 0 9.6034 7.7957 17.336 17.485 17.336h40.518c7.6398 62.675 50.345 121.79 114.61 138.89 11.717 4.0702 23.651 6.4932 35.585 7.4675v35.004c0 9.6034 7.8018 17.336 17.491 17.336 9.6896 0 17.491-7.7324 17.491-17.336v-36.29c72.022-10.837 136.05-71.25 142.16-145.08h43.375c9.6896 0 17.491-7.7324 17.491-17.336 0-9.6033-7.8018-17.33-17.491-17.33h-43.989c-3.3762-30.324-15.425-59.671-34.641-83.545-25.85-34.917-65.355-54.665-106.9-59.697v-48.301c0-9.6034-7.8018-17.336-17.491-17.336zm-17.491 100.99v26.275c-28.104 3.4282-54.77 17.713-70.512 42.589-8.7877 11.805-14.086 25.186-16.348 39.03h-29.317c0-0.0978 0-0.19727 0.032-0.29542 0.5625-4.8092 1.425-9.5861 2.5967-14.3 1.1712-4.7146 2.6516-9.3645 4.4532-13.925 1.8019-4.5607 3.9256-9.03 6.3792-13.377 2.454-4.3474 5.2399-8.5762 8.3669-12.652 2.7999-4.2915 5.8673-8.3247 9.1741-12.109 3.3071-3.7847 6.854-7.3198 10.603-10.595 3.7488-3.2751 7.7009-6.2923 11.827-9.0557 4.1258-2.7634 8.42-5.2731 12.857-7.5229 4.4377-2.2496 9.0179-4.2379 13.703-5.9715 4.6845-1.7336 9.4758-3.2109 14.342-4.4262 4.8665-1.2154 9.8067-2.1677 14.789-2.8627 2.3452-0.32701 4.7017-0.58803 7.0624-0.80031zm34.983 1.1512c1.0198 0.15833 2.0464 0.28091 3.0621 0.46175 4.9432 0.87989 9.8283 2.0259 14.628 3.4351 4.7996 1.4093 9.5145 3.0826 14.106 5.0234 4.5913 1.9408 9.0617 4.1494 13.379 6.624 4.3178 2.4747 8.4807 5.2139 12.46 8.2247 3.9792 3.0107 7.7726 6.2947 11.348 9.8438 3.5759 3.549 6.9367 7.3671 10.044 11.457 4.5197 5.4715 8.5351 11.318 12.019 17.446 3.4843 6.1288 6.4375 12.537 8.8204 19.139 2.3827 6.6024 4.1947 13.398 5.4103 20.291 0.2798 1.5941 0.5225 3.1922 0.7391 4.7956h-28.455c-2.9602-16.275-9.9332-31.829-20.305-44.773-14.124-19.164-34.884-30.902-57.256-35.472zm-34.983 47.525v43.444c-0.4701 0.22181-0.9624 0.39813-1.4222 0.64032-1.2642 0.66568-2.4898 1.4107-3.665 2.2285-1.175 0.8177-2.2986 1.7088-3.3666 2.6779-1.0679 0.96912-2.0766 2.0136-3.0186 3.1334-0.942 1.1198-1.8176 2.313-2.6152 3.5829-0.835 1.1304-1.5697 2.307-2.236 3.509h-49.008c0.1558-0.72464 0.2862-1.4529 0.4658-2.1731 0.7204-2.9128 1.6312-5.7825 2.7392-8.6002 1.1083-2.8176 2.4103-5.5818 3.9194-8.2678 1.5093-2.686 3.2263-5.3009 5.1494-7.8183 1.7218-2.6513 3.6061-5.1416 5.6398-7.4798 2.0338-2.3382 4.2164-4.5206 6.5221-6.544 2.3056-2.0234 4.736-3.8886 7.2735-5.596 2.5372-1.7074 5.1777-3.2581 7.907-4.6479 2.7293-1.3899 5.548-2.6164 8.429-3.6875 2.8809-1.0711 5.8275-1.9824 8.8204-2.7333 2.7874-0.69929 5.6149-1.2481 8.4661-1.6683zm34.983 1.89c0.7953 0.20931 1.5967 0.40159 2.3851 0.63413 2.9519 0.87071 5.8536 1.9036 8.6773 3.1027 2.8237 1.1991 5.5747 2.5588 8.2301 4.0877 2.6555 1.5289 5.2112 3.2249 7.6587 5.085 2.4472 1.8601 4.7824 3.8897 6.9817 6.0822 2.1991 2.1927 4.2631 4.553 6.174 7.0796 2.7795 3.3804 5.2547 6.9868 7.3976 10.773 2.1432 3.7865 3.9571 7.747 5.4226 11.826 1.0164 2.8284 1.799 5.7321 2.4723 8.6556h-41.467c-0.08-0.14937-0.1432-0.30723-0.2227-0.45556-0.9925-1.8136-2.1352-3.5398-3.4226-5.1589-0.885-1.2101-1.8448-2.3418-2.8634-3.3921-1.0187-1.0502-2.0965-2.021-3.2299-2.9119-1.1334-0.89097-2.3231-1.6994-3.5529-2.4317-0.2068-0.12322-0.4307-0.2136-0.64-0.33237zm-150.1 91.991h28.715c6.6699 36.28 32.158 69.425 69.494 79.408 5.5778 1.9463 11.238 3.2696 16.913 4.0568v22.938c-3.5914-0.35512-7.1803-0.81342-10.758-1.5083-5.0235-0.97578-10.024-2.2947-14.975-3.9707-5.0712-1.3154-9.9707-2.9551-14.69-4.888-4.7194-1.933-9.2564-4.1575-13.603-6.6487-4.3464-2.4912-8.5017-5.2469-12.454-8.2369-3.9521-2.99-7.7061-6.2171-11.242-9.6467s-6.8578-7.062-9.9567-10.872c-3.0994-3.8098-5.9751-7.7939-8.6153-11.925-2.6405-4.1307-5.0451-8.4066-7.2055-12.799-2.16-4.392-4.0745-8.9-5.733-13.494-1.6584-4.5942-3.0634-9.2805-4.1988-14.018-0.6666-2.7813-1.2104-5.5831-1.6893-8.397zm50.66 0h48.393c0.4582 0.89132 0.9038 1.7885 1.4285 2.641 0.7521 1.2223 1.5707 2.4001 2.4536 3.5275 0.8825 1.1273 1.8312 2.2048 2.8383 3.2197 1.0075 1.0148 2.0795 1.9655 3.2051 2.8503 1.1258 0.88476 2.3084 1.7007 3.5468 2.4378 0.8292 0.49367 1.7193 0.89667 2.5965 1.3173v42.674c-0.5471-0.093-1.094-0.15823-1.6401-0.26476-3.0893-0.60303-6.1658-1.4147-9.2112-2.4501-3.1189-0.81269-6.135-1.8284-9.0377-3.0227-2.9026-1.1942-5.6935-2.567-8.3669-4.1061-2.673-1.5392-5.2276-3.2438-7.6587-5.0911-2.4306-1.8473-4.7381-3.8402-6.9132-5.9592-2.1749-2.119-4.2182-4.3626-6.1244-6.7164-1.906-2.3538-3.6745-4.8169-5.2983-7.369-1.6239-2.552-3.1001-5.1909-4.4289-7.9044-1.3283-2.7135-2.5079-5.5032-3.5277-8.3416-0.8781-2.4433-1.6143-4.9315-2.2549-7.4428zm113.51 0h41.51c-0.032 0.11797-0.045 0.23932-0.073 0.35702-0.7254 2.9328-1.6448 5.8078-2.7455 8.6064-1.101 2.7986-2.3883 5.5216-3.8325 8.1631-1.4441 2.6413-3.0463 5.2032-4.8015 7.6644-1.7548 2.4612-3.6617 4.8214-5.6958 7.0796-2.0338 2.2581-4.1982 4.4135-6.4785 6.4455-2.2802 2.032-4.6734 3.9422-7.1679 5.7252-2.4943 1.7831-5.0941 3.4384-7.7703 4.9496-2.6765 1.5111-5.4293 2.8777-8.255 4.0938-2.826 1.2162-5.7218 2.2784-8.6652 3.1766-0.032 0.01-0.058 0.0157-0.086 0.0253v-41.806c1.0879-0.65366 2.159-1.3382 3.1802-2.0931 1.1554-0.85403 2.2668-1.7662 3.323-2.7395 1.0565-0.97328 2.0582-2.0089 3.0002-3.0904 0.942-1.0816 1.8271-2.2132 2.6399-3.3921 0.7013-1.0168 1.3247-2.0826 1.9193-3.1643zm64.089 0h27.945c-0.5151 3.6941-1.1582 7.3576-2.0499 10.946-1.1793 4.7471-2.6759 9.3956-4.4661 13.925-1.7898 4.5298-3.8754 8.9419-6.2237 13.217-2.3483 4.2753-4.9602 8.4148-7.8139 12.399-2.8538 3.9836-5.9479 7.8078-9.2551 11.463-3.3068 3.655-6.8267 7.1395-10.534 10.429-3.7076 3.289-7.6027 6.3852-11.659 9.2711-4.0556 2.886-8.2761 5.5633-12.628 8.0092-4.3515 2.4458-8.8343 4.6617-13.429 6.6301-4.5948 1.9685-9.3019 3.6864-14.087 5.1404-4.5828 1.3923-9.2405 2.5233-13.952 3.4105v-23.264c38.674-9.3752 71.886-41.798 78.152-81.575z" fill="#fff" stroke-width="11.966"/>
<path d="m238.62 126.94c-4.7621 0-8.5969 3.8332-8.5969 8.594v23.572c-23.898 1.8218-47.003 13.435-60.324 34.571-8.1742 11.026-12.573 23.767-13.749 36.811h-19.657c-4.7623 0-8.5939 3.8301-8.5939 8.5909 0 4.7606 3.8316 8.594 8.5939 8.594h19.913c3.7545 31.07 24.744 60.371 56.327 68.852 5.7588 2.0177 11.624 3.219 17.49 3.7018v17.352c0 4.7606 3.8348 8.594 8.5969 8.594 4.7625 0 8.5969-3.8332 8.5969-8.594v-17.991c35.398-5.3724 66.87-35.321 69.87-71.916h21.318c4.7621 0 8.5968-3.8332 8.5968-8.594 0-4.7608-3.8344-8.5909-8.5968-8.5909h-21.62c-1.6594-15.033-7.581-29.581-17.026-41.416-12.705-17.309-32.122-27.099-52.542-29.593v-23.945c0-4.7608-3.8344-8.594-8.5969-8.594zm-8.5969 50.062v13.026c-13.813 1.6995-26.918 8.7809-34.655 21.112-4.3191 5.8521-6.9234 12.486-8.0352 19.349h-14.409v-0.1464c0.2767-2.3841 0.7003-4.7522 1.276-7.0894 0.5759-2.3372 1.3035-4.6423 2.1888-6.9032 0.8857-2.2608 1.9295-4.4764 3.1355-6.6316 1.2059-2.1552 2.5753-4.2515 4.1121-6.2714 1.3763-2.1274 2.8838-4.1269 4.5092-6.0029 1.6251-1.876 3.3685-3.6287 5.2111-5.2522 1.8423-1.6235 3.7848-3.1193 5.8125-4.4893 2.0278-1.37 4.1382-2.614 6.3195-3.7293 2.181-1.1152 4.432-2.1008 6.7345-2.9602 2.3022-0.8594 4.6571-1.5918 7.0491-2.1942 2.3915-0.60243 4.8196-1.0746 7.2687-1.419 1.1525-0.16214 2.3107-0.29151 3.4712-0.3967zm17.193 0.57061c0.5013 0.0786 1.006 0.13927 1.5049 0.22885 2.4294 0.43625 4.8305 1.0042 7.1896 1.703 2.3587 0.69858 4.6762 1.5282 6.9329 2.4903 2.2567 0.96219 4.4536 2.057 6.5758 3.2838 2.1221 1.2268 4.1684 2.5848 6.1239 4.0772 1.9558 1.4926 3.82 3.1205 5.5778 4.8799 1.7574 1.7593 3.4092 3.6521 4.9364 5.6794 2.2213 2.7124 4.1947 5.6106 5.9072 8.6489 1.7123 3.0383 3.1638 6.2151 4.3351 9.488 1.1709 3.2729 2.0614 6.6421 2.6589 10.059 0.1368 0.79018 0.2577 1.5825 0.3632 2.3773h-13.985c-1.455-8.0681-4.8821-15.779-9.9797-22.196-6.9419-9.5004-17.145-15.319-28.141-17.585zm-17.193 23.56v21.536c-0.2321 0.1096-0.4729 0.1974-0.6989 0.31736-0.6215 0.33-1.2238 0.69942-1.8014 1.1048-0.5774 0.40539-1.1296 0.84713-1.6546 1.3276-0.5248 0.48045-1.0206 0.99817-1.4835 1.5534-0.4632 0.55514-0.8935 1.1466-1.2853 1.7762-0.4105 0.56038-0.7718 1.1438-1.099 1.7395h-24.087c0.076-0.35929 0.14-0.72025 0.229-1.0773 0.354-1.444 0.8018-2.8666 1.3462-4.2634 0.5448-1.3968 1.185-2.7671 1.9263-4.0986 0.742-1.3315 1.5857-2.6279 2.5308-3.8757 0.8463-1.3144 1.7727-2.5489 2.7722-3.7079 0.9996-1.1591 2.0723-2.241 3.2054-3.2441 1.1332-1.0031 2.3276-1.9278 3.5749-2.774 1.247-0.84641 2.5449-1.6152 3.8863-2.3041 1.3411-0.68905 2.7264-1.2971 4.1426-1.828 1.4158-0.53097 2.8641-0.98283 4.335-1.355 1.37-0.34667 2.7598-0.61876 4.161-0.82711zm17.193 0.93695c0.3908 0.10362 0.7849 0.19906 1.1722 0.31439 1.4509 0.4316 2.8769 0.94362 4.2648 1.5381 1.3879 0.59446 2.7397 1.2685 4.0449 2.0264 1.3052 0.75801 2.5613 1.5987 3.7641 2.5208 1.2031 0.92217 2.3508 1.9282 3.4315 3.0151 1.081 1.0869 2.0955 2.257 3.0346 3.5095 1.3663 1.6758 2.5827 3.4636 3.636 5.3407 1.0532 1.8771 1.9447 3.8404 2.665 5.8626 0.4993 1.4022 0.8841 2.8416 1.2152 4.2908h-20.381c-0.038-0.0739-0.07-0.15237-0.1078-0.22587-0.4878-0.89907-1.0491-1.7548-1.682-2.5574-0.4351-0.59994-0.9067-1.1609-1.4073-1.6815-0.5009-0.52061-1.0307-1.0019-1.5876-1.4435-0.5572-0.44173-1.1417-0.84249-1.7462-1.2055-0.1013-0.0607-0.21-0.10595-0.3149-0.16475zm-73.775 45.604h14.114c3.2782 17.985 15.805 34.416 34.155 39.365 2.7414 0.96483 5.5235 1.6209 8.3128 2.0111v11.371c-1.765-0.17606-3.5291-0.40325-5.2874-0.74776-2.4692-0.48379-4.9269-1.1376-7.3603-1.9684-2.4924-0.65211-4.9004-1.4649-7.2199-2.4231-2.3196-0.95826-4.5496-2.0609-6.6858-3.2959-2.1361-1.235-4.1784-2.6011-6.121-4.0833-1.9425-1.4823-3.7873-3.082-5.5257-4.7822-1.738-1.7002-3.3703-3.5008-4.8937-5.3895-1.523-1.8887-2.9364-3.8637-4.2342-5.9114-1.2979-2.0477-2.4796-4.1674-3.5412-6.3447-1.0619-2.1773-2.0025-4.4121-2.818-6.6896-0.815-2.2775-1.5055-4.6006-2.0637-6.949-0.3275-1.3788-0.5946-2.7677-0.8303-4.1626zm24.899 0h23.785c0.2258 0.44197 0.4444 0.88667 0.7022 1.3092 0.3696 0.60589 0.7719 1.1898 1.2056 1.7487 0.4342 0.55884 0.9004 1.093 1.3952 1.5961 0.4952 0.50308 1.0222 0.97436 1.5755 1.413 0.5534 0.43863 1.1348 0.84308 1.7431 1.2086 0.4077 0.24469 0.845 0.44448 1.2762 0.65307v21.155c-0.2671-0.0465-0.5377-0.0786-0.8061-0.13129-1.5182-0.2989-3.0305-0.7013-4.5274-1.2146-1.5329-0.4029-3.0152-0.90645-4.4419-1.4984-1.4266-0.59193-2.7983-1.2725-4.112-2.0356-1.3141-0.76301-2.5697-1.608-3.7641-2.5239-1.1948-0.91574-2.3289-1.9038-3.3981-2.9542-1.069-1.0504-2.0732-2.1627-3.0101-3.3295-0.9367-1.1669-1.8058-2.3879-2.604-3.653-0.7982-1.2651-1.5237-2.5733-2.1766-3.9185-0.6529-1.3452-1.2327-2.728-1.7341-4.1352-0.4317-1.2112-0.7933-2.4446-1.1081-3.6897zm55.788 0h20.402c0 0.0584-0.032 0.11911-0.035 0.17702-0.3565 1.4538-0.808 2.8791-1.3493 4.2665-0.541 1.3874-1.1739 2.7373-1.8837 4.0467-0.7098 1.3095-1.4969 2.5794-2.3597 3.7995-0.8629 1.2201-1.8001 2.3902-2.7996 3.5096-0.9995 1.1194-2.0631 2.1879-3.1841 3.1953-1.1207 1.0074-2.2968 1.9543-3.5227 2.8381-1.226 0.88394-2.5038 1.7045-3.8192 2.4537-1.3153 0.7491-2.6682 1.4266-4.057 2.0295-1.3892 0.60291-2.8122 1.1295-4.2589 1.5748 0 5e-3 -0.032 7e-3 -0.041 0.0125v-20.725c0.535-0.32404 1.0612-0.66342 1.5631-1.0376 0.5679-0.42339 1.1143-0.8756 1.6333-1.3581 0.5191-0.48247 1.0114-0.99579 1.4744-1.532 0.4631-0.53621 0.8981-1.0972 1.2976-1.6815 0.3447-0.50403 0.6509-1.0324 0.9432-1.5687zm31.499 0h13.735c-0.2544 1.8312-0.5692 3.6474-1.0075 5.4261-0.5797 2.3533-1.3151 4.6577-2.195 6.9032-0.8797 2.2456-1.9047 4.4328-3.0588 6.5522-1.1541 2.1194-2.438 4.1715-3.8405 6.1463-1.4025 1.9749-2.9232 3.8706-4.5486 5.6825-1.6255 1.8119-3.3555 3.5393-5.1778 5.1697-1.8222 1.6305-3.7368 3.1654-5.7301 4.596-1.9934 1.4307-4.0679 2.758-6.2066 3.9704-2.1388 1.2125-4.342 2.311-6.6003 3.2868-2.2583 0.97579-4.5715 1.8276-6.9236 2.5483-2.2523 0.69023-4.5418 1.2508-6.8567 1.6907v-11.533c19.008-4.6476 35.331-20.72 38.41-40.44z" fill="#fff" stroke-width="11.966"/>
</svg>