<?xml version="1.0" encoding="UTF-8"?>
<svg width="200" height="200" version="1.1" viewBox="0 0 52.916665 52.916668" xmlns="http://www.w3.org/2000/svg" xmlnsCc="http://creativecommons.org/ns#" xmlnsDc="http://purl.org/dc/elements/1.1/" xmlnsRdf="http://www.w3.org/1999/02/22-rdf-syntax-ns#">
<metadata>
<rdfRDF>
<ccWork rdfAbout="">
<dcFormat>image/svg+xml</dcFormat>
<dcType rdfResource="http://purl.org/dc/dcmitype/StillImage"/>
</ccWork>
</rdfRDF>
</metadata>
<defs>
<filter id="a" x="-.025194" y="-.022914" width="1.0504" height="1.0458" color-interpolation-filters="sRGB">
<feGaussianBlur stdDeviation="0.4013645"/>
</filter>
</defs>
<path d="m7.6101 5.5103h31.544c0.21591 0.61216 5.799 5.1612 6.5082 5.7933v36.064c-0.53288 0.35464-1.4174 0.06334-2.0892 0.15823h-35.963c-0.35464-0.53288-0.06334-1.4174-0.15823-2.0892v-39.768l0.04624-0.11199z" filter="url(#a)"/>
<path d="m7.6101 5.5103h31.544c0.21591 0.61216 5.799 5.1612 6.5082 5.7933v36.064c-0.53288 0.35464-1.4174 0.06334-2.0892 0.15823h-35.963c-0.35464-0.53288-0.063342-1.4174-0.15823-2.0892v-39.768l0.046244-0.11199z"/>
<rect x="8.3697" y="6.6953" width="14.97" height="14.624" ry=".15823" fill="#fff"/>
<rect x="8.3697" y="22.377" width="36.216" height="14.941" ry=".16166" fill="#fff"/>
<rect x="8.3697" y="38.376" width="36.216" height="7.8853" ry=".085322" fill="#fff"/>
<path d="m24.541 6.6953h15.653c0.16015 0.075865 4.4131 3.9431 4.4036 4.1227-0.0088 0.16732-0.04289-3.3552-0.01202-3.2163v13.559c-0.14654 0.30934-0.6184 0.09422-0.90643 0.15823h-19.138c-0.30934-0.14654-0.09422-0.6184-0.15823-0.90643v-13.559c-0.0023-0.084841 0.07339-0.16051 0.15823-0.15823z" fill="#fff"/>
<path d="m39.154 5.5103 0.24552 5.906 6.2627-0.11264z"/>
<rect x="9.9779" y="23.943" width="32.849" height="2.9149" ry=".187" fill="#e6e6e6"/>
<rect x="9.9779" y="28.445" width="32.849" height="2.9149" ry=".187" fill="#e6e6e6"/>
<rect x="9.9779" y="32.947" width="32.849" height="2.9149" ry=".187" fill="#e6e6e6"/>
<rect x="30.663" y="39.015" width="13.061" height="6.3343" ry=".40637" fill="#e6e6e6"/>
</svg>
