<?xml version="1.0" encoding="UTF-8"?>
<svg width="200" height="200" version="1.1" viewBox="0 0 52.916665 52.916668" xmlns="http://www.w3.org/2000/svg" xmlnsCc="http://creativecommons.org/ns#" xmlnsDc="http://purl.org/dc/elements/1.1/" xmlnsRdf="http://www.w3.org/1999/02/22-rdf-syntax-ns#">
<metadata>
<rdfRDF>
<ccWork rdfAbout="">
<dcFormat>image/svg+xml</dcFormat>
<dcType rdfResource="http://purl.org/dc/dcmitype/StillImage"/>
<dcTitle/>
</ccWork>
</rdfRDF>
</metadata>
<path d="m32.019 12.409c-0.80613 0-1.4552 0.64908-1.4552 1.4552v3.9915c-4.0452 0.30849-7.9564 2.2751-10.211 5.8539-1.3837 1.867-2.1281 4.0245-2.3275 6.2332h-3.3274c-0.80613 0-1.4547 0.64856-1.4547 1.4547 0 0.80613 0.64856 1.4552 1.4547 1.4552h3.3709c0.63559 5.2611 4.1885 10.223 9.5348 11.659 0.97481 0.34166 1.9677 0.54506 2.9605 0.62684v2.9383c0 0.80613 0.64908 1.4552 1.4552 1.4552 0.80613 0 1.4552-0.64908 1.4552-1.4552v-3.0463c5.992-0.90971 11.319-5.9809 11.827-12.178h3.6086c0.80613 0 1.4552-0.64908 1.4552-1.4552 0-0.80613-0.64908-1.4547-1.4552-1.4547h-3.6597c-0.28089-2.5455-1.2833-5.0089-2.882-7.013-2.1506-2.931-5.4373-4.5887-8.894-5.0111v-4.0545c0-0.80613-0.64908-1.4552-1.4552-1.4552zm-1.4552 8.477v2.2056c-2.3381 0.28777-4.5566 1.4869-5.8663 3.575-0.73108 0.99094-1.1719 2.1142-1.3601 3.2763h-2.4391c9.35e-4 -0.0082 0.0011-0.01656 0.0021-0.0248 0.0468-0.4037 0.11854-0.80468 0.21601-1.2004 0.09746-0.39576 0.22061-0.78608 0.37052-1.1689 0.14991-0.38284 0.32658-0.758 0.53072-1.1229 0.20414-0.36493 0.43593-0.71991 0.69608-1.062 0.23294-0.36024 0.48814-0.6988 0.76326-1.0165s0.57023-0.61444 0.88212-0.88935c0.31188-0.27492 0.64068-0.52819 0.98392-0.76016 0.34324-0.23197 0.70051-0.44264 1.0697-0.63149 0.36919-0.18884 0.75025-0.35574 1.14-0.50126 0.38972-0.14552 0.78836-0.26953 1.1932-0.37155 0.40485-0.10202 0.81585-0.18196 1.2304-0.2403 0.1951-0.02745 0.39117-0.04936 0.58756-0.06718zm2.9104 0.09663c0.08485 0.01329 0.17028 0.02358 0.25477 0.03876 0.41124 0.07386 0.81767 0.17006 1.217 0.28835 0.39932 0.1183 0.7916 0.25876 1.1736 0.42168 0.38198 0.16292 0.75389 0.34831 1.1131 0.55604 0.35922 0.20773 0.70557 0.43767 1.0366 0.6904 0.33106 0.25273 0.64664 0.52839 0.94413 0.82631 0.29749 0.29791 0.57711 0.61841 0.83561 0.9617 0.37602 0.45929 0.71007 0.95004 0.99994 1.4645 0.28987 0.51447 0.53557 1.0524 0.73381 1.6066 0.19824 0.55422 0.34899 1.1247 0.4501 1.7033 0.02339 0.13381 0.04348 0.26796 0.06149 0.40256h-2.3673c-0.24627-1.3662-0.82639-2.6718-1.6893-3.7584-1.1751-1.6087-2.9022-2.594-4.7635-2.9776zm-2.9104 3.9894v3.6468c-0.03911 0.01862-0.08008 0.03342-0.11834 0.05375-0.10517 0.05588-0.20712 0.11842-0.30489 0.18707-0.09778 0.06864-0.19124 0.14344-0.28009 0.22479-0.08884 0.08135-0.17278 0.16903-0.25115 0.26303-0.07837 0.094-0.1512 0.19416-0.21756 0.30076-0.06948 0.09489-0.1306 0.19366-0.18604 0.29456h-4.0773c0.01289-0.06083 0.02393-0.12196 0.03876-0.18242 0.05994-0.24451 0.1357-0.4854 0.22789-0.72192 0.0922-0.23652 0.20053-0.46855 0.32608-0.69402s0.2684-0.44497 0.4284-0.65629c0.14326-0.22256 0.30002-0.4316 0.46922-0.62787 0.1692-0.19627 0.35079-0.37947 0.5426-0.54932 0.19182-0.16985 0.39403-0.32642 0.60513-0.46974 0.2111-0.14332 0.43078-0.27349 0.65784-0.39016 0.22706-0.11667 0.46156-0.21963 0.70125-0.30954 0.23969-0.08991 0.48481-0.16641 0.73381-0.22944 0.23191-0.0587 0.46716-0.10477 0.70435-0.14004zm2.9104 0.15865c0.06617 0.01757 0.13286 0.03371 0.19844 0.05323 0.24559 0.07309 0.487 0.15979 0.72192 0.26045 0.23493 0.10066 0.46378 0.21479 0.68471 0.34313 0.22093 0.12834 0.43356 0.27071 0.63717 0.42685 0.20361 0.15614 0.39788 0.32651 0.58084 0.51056 0.18296 0.18406 0.35468 0.38219 0.51366 0.59428 0.23126 0.28376 0.43719 0.58649 0.61547 0.90434 0.17828 0.31785 0.32922 0.6503 0.45114 0.99271 0.08454 0.23742 0.14966 0.48117 0.20567 0.72657h-3.4499c-0.0066-0.01254-0.01185-0.02579-0.0186-0.03824-0.08257-0.15224-0.17763-0.29714-0.28474-0.43305-0.07363-0.10158-0.15349-0.19658-0.23823-0.28474-0.08474-0.08816-0.17441-0.16965-0.26872-0.24443-0.0943-0.07479-0.19326-0.14265-0.29559-0.20412-0.01722-0.01034-0.03581-0.01793-0.05323-0.0279zm-12.488 7.722h2.389c0.55492 3.0454 2.6754 5.8277 5.7816 6.6657 0.46404 0.16338 0.93497 0.27446 1.4071 0.34054v1.9255c-0.29879-0.02981-0.59737-0.06828-0.89504-0.12661-0.41793-0.08191-0.83396-0.19262-1.2459-0.33331-0.42189-0.11042-0.8295-0.24806-1.2221-0.41031-0.39265-0.16226-0.77009-0.34899-1.1317-0.55811-0.36162-0.20912-0.7073-0.44044-1.0361-0.69143-0.32881-0.25099-0.64113-0.52188-0.93534-0.80977-0.29422-0.28789-0.57054-0.5928-0.82837-0.91261-0.25784-0.3198-0.49708-0.65424-0.71675-1.001-0.21967-0.34674-0.41972-0.70567-0.59945-1.0744-0.17972-0.36868-0.33899-0.74709-0.47697-1.1327-0.13799-0.38565-0.25487-0.77903-0.34933-1.1767-0.05547-0.23347-0.1007-0.46866-0.14056-0.70487zm4.2147 0h4.0261c0.03814 0.07482 0.07521 0.15013 0.11886 0.22169 0.06257 0.1026 0.13068 0.20147 0.20412 0.29611 0.07344 0.09463 0.15235 0.18508 0.23616 0.27027s0.17299 0.16499 0.26665 0.23926c0.09366 0.07427 0.19206 0.14276 0.29507 0.20464 0.06898 0.04144 0.14304 0.07527 0.216 0.11058v3.5822c-0.04549-0.0078-0.091-0.01328-0.13642-0.02222-0.25704-0.05062-0.513-0.11875-0.76636-0.20567-0.25947-0.06822-0.51041-0.15348-0.75189-0.25373-0.24149-0.10024-0.47368-0.21548-0.69608-0.34468-0.2224-0.1292-0.43494-0.27229-0.63717-0.42736-0.20223-0.15507-0.39421-0.32236-0.57516-0.50023-0.18095-0.17787-0.35095-0.36621-0.50953-0.56379-0.15858-0.19758-0.3057-0.40434-0.4408-0.61857-0.1351-0.21422-0.25792-0.43574-0.36845-0.66352-0.11053-0.22778-0.20866-0.46195-0.29352-0.70022-0.07305-0.2051-0.13428-0.41396-0.18759-0.62477zm9.4434 0h3.4535c-0.0024 0.0099-0.0038 0.02009-0.0062 0.02997-0.06033 0.24619-0.13682 0.48752-0.22841 0.72244-0.09159 0.23492-0.19869 0.4635-0.31884 0.68523-0.12015 0.22172-0.25344 0.43677-0.39946 0.64337-0.14602 0.2066-0.30466 0.40472-0.47387 0.59428-0.16921 0.18955-0.34928 0.37048-0.53898 0.54105-0.18972 0.17057-0.38882 0.33092-0.59635 0.48059-0.20753 0.14968-0.42381 0.28863-0.64647 0.41548s-0.45168 0.24156-0.68678 0.34365c-0.2351 0.10209-0.47602 0.19125-0.72089 0.26665-0.0024 7.4e-4 -0.0048 0.0013-0.0072 0.0021v-3.5093c0.09051-0.05487 0.17962-0.11233 0.26458-0.1757 0.09612-0.07169 0.1886-0.14826 0.27647-0.22996 0.08787-0.0817 0.17122-0.16863 0.2496-0.25942 0.07837-0.09079 0.15199-0.18578 0.21962-0.28474 0.05835-0.08535 0.11021-0.17482 0.15968-0.26562zm5.332 0h2.3249c-0.04286 0.31009-0.09636 0.61762-0.17053 0.9188-0.09812 0.39848-0.22263 0.78869-0.37155 1.1689-0.14892 0.38024-0.32244 0.75061-0.5178 1.1095-0.19536 0.35888-0.41266 0.70636-0.65009 1.0408-0.23743 0.3344-0.49485 0.65541-0.76998 0.96222-0.27513 0.30681-0.56797 0.59931-0.87643 0.8754-0.30847 0.27609-0.63253 0.53599-0.96997 0.77824-0.33743 0.24226-0.68855 0.467-1.0506 0.67231-0.36204 0.20531-0.73498 0.39132-1.1172 0.55655-0.38227 0.16524-0.77388 0.30945-1.172 0.4315-0.38126 0.11687-0.76879 0.21181-1.1607 0.28629v-1.9528c3.2175-0.78698 5.9806-3.5086 6.5019-6.8476z"/>
<path d="m12.304 3.5725c-0.3962 0-0.71522 0.32177-0.71522 0.7214v1.9787c-1.9882 0.15293-3.9105 1.1278-5.0187 2.902-0.68007 0.92554-1.046 1.9951-1.1439 3.09h-1.6354c-0.3962 0-0.71496 0.32151-0.71496 0.72114 0 0.39962 0.31876 0.7214 0.71496 0.7214h1.6567c0.31238 2.6081 2.0586 5.0677 4.6862 5.7796 0.47911 0.16937 0.96711 0.27021 1.4551 0.31074v1.4566c0 0.39962 0.31902 0.7214 0.71522 0.7214 0.3962 0 0.71522-0.32177 0.71522-0.7214v-1.5102c2.945-0.45097 5.5633-2.9649 5.8129-6.0368h1.7736c0.3962 0 0.71522-0.32177 0.71522-0.7214 0-0.39963-0.31901-0.72114-0.71522-0.72114h-1.7987c-0.13805-1.2619-0.63071-2.4831-1.4165-3.4766-1.057-1.453-2.6724-2.2748-4.3713-2.4841v-2.01c0-0.39963-0.31901-0.7214-0.71522-0.7214zm-0.71522 4.2023v1.0934c-1.1492 0.14266-2.2395 0.73709-2.8832 1.7722-0.35932 0.49124-0.57599 1.0481-0.66848 1.6242h-1.1988c4.552e-4 -0.0041 5.406e-4 -0.0082 0.00104-0.01229 0.023001-0.20013 0.058263-0.39891 0.10617-0.5951 0.0479-0.19619 0.10843-0.38969 0.18211-0.57947 0.073678-0.18978 0.16051-0.37576 0.26084-0.55667 0.10033-0.18091 0.21425-0.35688 0.34212-0.52644 0.11449-0.17858 0.23992-0.34642 0.37513-0.5039 0.13522-0.15748 0.28026-0.3046 0.43355-0.44088 0.15329-0.13628 0.31488-0.26184 0.48358-0.37684 0.1687-0.115 0.34429-0.21943 0.52575-0.31305 0.18145-0.09361 0.36874-0.17635 0.56029-0.24849 0.19154-0.07214 0.38747-0.13362 0.58645-0.18419 0.19898-0.05057 0.40098-0.09021 0.60474-0.11912 0.09589-0.01361 0.19225-0.02447 0.28878-0.0333zm1.4304 0.0479c0.0417 0.0066 0.08369 0.01169 0.12522 0.01921 0.20212 0.03662 0.40187 0.0843 0.59813 0.14295 0.19626 0.05864 0.38906 0.12828 0.5768 0.20904 0.18774 0.08077 0.37053 0.17267 0.54708 0.27565 0.17656 0.10298 0.34678 0.21697 0.50949 0.34225 0.16271 0.12529 0.31782 0.26194 0.46403 0.40963 0.14621 0.14768 0.28364 0.30657 0.41069 0.47674 0.18481 0.22769 0.34899 0.47097 0.49146 0.72601 0.14247 0.25504 0.26322 0.52171 0.36066 0.79645 0.09743 0.27474 0.17152 0.55756 0.22122 0.84436 0.0115 0.06633 0.02137 0.13284 0.03022 0.19956h-1.1635c-0.12104-0.67726-0.40616-1.3245-0.83027-1.8632-0.57752-0.79749-1.4264-1.2859-2.3412-1.4761zm-1.4304 1.9777v1.8078c-0.01923 0.0092-0.03935 0.01657-0.05816 0.02664-0.05169 0.0277-0.1018 0.05871-0.14985 0.09274-0.04805 0.03403-0.094 0.07111-0.13766 0.11144-0.04366 0.04033-0.08492 0.08379-0.12344 0.1304-0.03852 0.0466-0.07432 0.09625-0.10693 0.1491-0.03414 0.04704-0.06419 0.09601-0.09143 0.14602h-2.0039c0.0063-0.03016 0.01177-0.06046 0.01905-0.09043 0.02946-0.12121 0.06669-0.24063 0.11201-0.35788 0.04531-0.11725 0.09856-0.23228 0.16026-0.34405 0.06171-0.11177 0.13191-0.22059 0.21055-0.32534 0.07041-0.11033 0.14746-0.21396 0.23062-0.31125 0.08316-0.0973 0.17241-0.18812 0.26668-0.27232 0.09428-0.0842 0.19366-0.16182 0.29741-0.23286 0.10376-0.07105 0.21172-0.13558 0.32332-0.19341 0.1116-0.05784 0.22685-0.10888 0.34466-0.15345 0.1178-0.04457 0.23828-0.0825 0.36066-0.11374 0.11398-0.0291 0.2296-0.05194 0.34618-0.06943zm1.4304 0.07865c0.03253 0.0087 0.0653 0.01671 0.09753 0.02639 0.12071 0.03623 0.23935 0.07921 0.35482 0.12911 0.11546 0.0499 0.22794 0.10648 0.33653 0.1701 0.10858 0.06363 0.21309 0.1342 0.31316 0.2116 0.10007 0.07741 0.19556 0.16186 0.28548 0.2531 0.08993 0.09124 0.17432 0.18946 0.25246 0.2946 0.11366 0.14067 0.21487 0.29074 0.30249 0.44831 0.08763 0.15757 0.16181 0.32237 0.22173 0.49212 0.04155 0.1177 0.07356 0.23853 0.10109 0.36018h-1.6956c-0.0032-0.0062-0.0058-0.01279-0.0091-0.01896-0.04058-0.07547-0.0873-0.1473-0.13994-0.21468-0.03619-0.05036-0.07544-0.09745-0.11709-0.14115-0.04165-0.0437-0.08573-0.0841-0.13207-0.12117-0.04635-0.03708-0.09499-0.07072-0.14528-0.10119-0.0085-0.0051-0.0176-0.0089-0.02617-0.01383zm-6.1378 3.8281h1.1742c0.27274 1.5097 1.3149 2.889 2.8416 3.3044 0.22807 0.08099 0.45953 0.13606 0.6916 0.16882v0.95452c-0.14685-0.01478-0.2936-0.03385-0.4399-0.06277-0.20541-0.04061-0.40988-0.09549-0.61235-0.16523-0.20735-0.05474-0.40769-0.12297-0.60067-0.2034-0.19298-0.08044-0.37849-0.173-0.55622-0.27667-0.17773-0.10367-0.34763-0.21834-0.50924-0.34276-0.16161-0.12443-0.31511-0.25871-0.45971-0.40143-0.1446-0.14272-0.28041-0.29387-0.40714-0.45241-0.12672-0.15854-0.24431-0.32433-0.35228-0.49622-0.10797-0.17189-0.20629-0.34982-0.29462-0.53259-0.088331-0.18277-0.16661-0.37036-0.23443-0.56154-0.067819-0.19118-0.12526-0.38619-0.17169-0.58332-0.027263-0.11574-0.049493-0.23233-0.069084-0.34942zm2.0715 0h1.9788c0.01874 0.0371 0.03697 0.07443 0.05842 0.1099 0.03075 0.05086 0.06423 0.09988 0.10032 0.14679 0.03609 0.04691 0.07488 0.09175 0.11607 0.13398 0.04119 0.04223 0.08502 0.08179 0.13106 0.11861 0.04603 0.03682 0.0944 0.07077 0.14503 0.10145 0.03391 0.02054 0.0703 0.03731 0.10616 0.05482v1.7758c-0.02235-0.0039-0.04473-0.0066-0.06705-0.01102-0.12633-0.02509-0.25213-0.05887-0.37666-0.10196-0.12753-0.03382-0.25086-0.07609-0.36955-0.12578-0.1187-0.04969-0.23281-0.10682-0.34212-0.17087-0.10931-0.06405-0.21377-0.13498-0.31316-0.21186-0.09939-0.07687-0.19375-0.15981-0.28269-0.24798-0.08894-0.08817-0.17249-0.18154-0.25043-0.27949-0.07794-0.09795-0.15025-0.20045-0.21665-0.30664-0.0664-0.1062-0.12676-0.21601-0.18109-0.32893-0.05432-0.11292-0.10255-0.229-0.14426-0.34712-0.0359-0.10167-0.066-0.20521-0.0922-0.30972zm4.6413 0h1.6974c-0.0011 0.0049-0.0019 0.01-3e-3 0.01486-0.02966 0.12204-0.06724 0.24168-0.11226 0.35814-0.04501 0.11646-0.09766 0.22978-0.15671 0.33969-0.05906 0.10992-0.12456 0.21652-0.19633 0.31894-0.07177 0.10242-0.14974 0.20064-0.2329 0.2946-0.08317 0.09397-0.17166 0.18366-0.2649 0.26822-0.09325 0.08456-0.1911 0.16405-0.2931 0.23824-0.102 0.0742-0.2083 0.14308-0.31773 0.20597-0.10944 0.06288-0.22199 0.11975-0.33754 0.17036-0.11555 0.05061-0.23396 0.09481-0.35431 0.13219-0.0011 3.93e-4 -0.0024 6.44e-4 -0.0035 1e-3v-1.7397c0.04449-0.0272 0.08828-0.05569 0.13004-0.0871 0.04725-0.03554 0.0927-0.0735 0.13588-0.114 0.04319-0.0405 0.08416-0.08359 0.12268-0.1286 0.03852-0.04501 0.0747-0.0921 0.10794-0.14115 0.02868-0.04231 0.05417-0.08666 0.07848-0.13168zm2.6206 0h1.1427c-0.02106 0.15372-0.04736 0.30617-0.08381 0.45548-0.04823 0.19754-0.10942 0.39098-0.18261 0.57947-0.07319 0.1885-0.15847 0.3721-0.25449 0.55001-0.09602 0.17791-0.20282 0.35017-0.31951 0.51594-0.11669 0.16578-0.24321 0.32491-0.37844 0.477-0.13522 0.1521-0.27915 0.2971-0.43076 0.43396-0.15161 0.13687-0.31088 0.26571-0.47673 0.3858-0.16584 0.1201-0.33841 0.23151-0.51635 0.33329-0.17794 0.10178-0.36123 0.19399-0.54911 0.2759-0.18788 0.08191-0.38036 0.15341-0.57604 0.21391-0.18738 0.05794-0.37785 0.105-0.57045 0.14192v-0.96809c1.5814-0.39013 2.9394-1.7393 3.1956-3.3946z"/>
</svg>
