<?xml version="1.0" encoding="UTF-8"?>
<svg width="200" height="200" version="1.1" viewBox="0 0 52.916665 52.916668" xmlns="http://www.w3.org/2000/svg" xmlns:cc="http://creativecommons.org/ns#" xmlns:dc="http://purl.org/dc/elements/1.1/" xmlns:rdf="http://www.w3.org/1999/02/22-rdf-syntax-ns#">
<g transform="matrix(.39197 0 0 .39166 -68.766 -28.333)">
<flowRoot transform="scale(.26458)" fill="#000000" font-family="sans-serif" font-size="40px" letter-spacing="0px" word-spacing="0px" style="line-height:1.25" xml:space="preserve"><flowRegion><rect x="-273.93" y="476.81" width="33.214" height="40"/></flowRegion><flowPara>dD H</flowPara></flowRoot>
<path d="m222.67 165.55c-2.555-1.3502-2.7873-4.2355-0.57229-7.1066 1.1862-1.5376 1.8292-2.2902 4.0082-4.6921 0.31397-0.34608 1.8965-2.2574 3.5168-4.2474s3.2003-3.9013 3.5113-4.2474c1.5377-1.7114 2.9074-3.305 4.6144-5.3688l1.3179-1.5933v-22.426c0-22.206 6e-3 -22.435 0.65404-23.345 1.846-2.5924 5.5047-2.3768 7.2131 0.42523 0.60906 0.99894 0.62522 1.6309 0.62636 24.499l1e-3 23.474-0.72423 1.0664c-0.60139 0.88554-16.022 19.361-18.747 22.46-1.5652 1.7805-3.4213 2.1578-5.4198 1.1016z" fill="#fff"/>
<path d="m234.67 207.11c-5.5584-0.54272-14.326-3.1269-20.608-6.0736-3.7647-1.7662-10.087-5.7401-13.082-8.2227-4.1914-3.4747-5.8226-5.031-8.4926-8.1026-8.29-9.5367-13.15-19.48-15.75-32.22-0.91113-4.4654-0.96398-5.1256-0.98223-12.27-0.0179-7.0034 0.0442-7.8816 0.85677-12.113 3.0823-16.05 10.892-29.61 22.787-39.562 2.0171-1.6877 3.8976-3.2101 4.1789-3.3832 0.28128-0.17304 1.4809-0.96386 2.6659-1.7574 3.58-2.3973 4.7678-3.0499 9.7053-5.3325 4.1023-1.8964 10.523-3.8158 16.046-4.7967 5.5958-0.99388 16.569-0.98891 22.338 0.01013 7.923 1.3721 16.512 4.4269 22.421 7.9744 7.4726 4.4862 12.675 8.8899 18.546 15.7 1.9697 2.2846 3.8438 4.8687 5.5665 7.6752 0.92422 1.5057 4.7064 9.0215 5.1622 10.258 1.5544 4.2171 2.7245 8.372 3.5297 12.533 0.88087 4.553 0.93358 5.2677 0.93358 12.661 0 7.1019-0.0752 8.2268-0.80295 12.007-1.1516 5.9815-2.4462 10.162-4.7993 15.497-1.1041 2.5033-4.0444 7.9256-4.9789 9.1816-0.40982 0.55084-0.74512 1.0913-0.74512 1.201 0 0.39397-6.3299 8.0337-8.0808 9.753-4.6636 4.5793-10.096 8.6927-14.886 11.271-6.6778 3.5945-11.791 5.5147-19.034 7.148-4.198 0.9466-4.7736 0.99788-12.27 1.0932-4.326 0.055-8.9273-4e-3 -10.225-0.13038zm15.731-8.5367c3.3067-0.28264 9.8197-1.8013 13.317-3.1052 2.5735-0.95946 8.0047-3.5878 9.4282-4.5626 0.65658-0.44964 1.2441-0.81753 1.3055-0.81753 0.25719 0 5.121-3.4279 6.2497-4.4047 11.12-9.6231 17.57-20.433 20.555-34.451 0.80298-3.7703 0.87158-4.6435 0.87749-11.169 6e-3 -6.5765-0.0559-7.3692-0.87232-11.169-1.394-6.4885-2.4537-9.573-5.296-15.416-3.5388-7.2751-9.2235-14.313-15.73-19.475-1.4412-1.1434-2.7955-2.2237-3.0097-2.4008s-1.6299-1.0749-3.1462-1.9951c-9.5476-5.7943-19.854-8.6919-30.915-8.6919-12.39 0-23.733 3.612-34.293 10.92-2.064 1.4284-5.692 4.5503-7.9477 6.8394-9.7414 9.8849-15.932 23.646-16.568 36.827-0.61845 12.832 1.1044 21.32 6.4556 31.807 2.9771 5.8341 7.8995 12.227 12.472 16.198 1.2563 1.091 2.4257 2.1333 2.5987 2.3162 0.62771 0.66345 5.6906 4.2653 5.9954 4.2653 0.0615 0 0.64105 0.35922 1.288 0.79826 1.6313 1.107 8.1764 4.2356 8.861 4.2356 0.30898 0 0.69628 0.12406 0.86067 0.27569 0.97075 0.89537 8.9334 2.8243 13.198 3.1972 6.3857 0.55835 7.5524 0.55661 14.315-0.0214z" fill="#fff"/>
</g>
</svg>
