<?xml version="1.0" encoding="UTF-8" standalone="no"?>
<svg
   xmlns:osb="http://www.openswatchbook.org/uri/2009/osb"
   xmlns:dc="http://purl.org/dc/elements/1.1/"
   xmlns:cc="http://creativecommons.org/ns#"
   xmlns:rdf="http://www.w3.org/1999/02/22-rdf-syntax-ns#"
   xmlns:svg="http://www.w3.org/2000/svg"
   xmlns="http://www.w3.org/2000/svg"
   xmlns:xlink="http://www.w3.org/1999/xlink"
   id="svg61"
   xmlnsRdf="http://www.w3.org/1999/02/22-rdf-syntax-ns#"
   xmlnsDc="http://purl.org/dc/elements/1.1/"
   xmlnsCc="http://creativecommons.org/ns#"
   viewBox="0 0 250 200"
   version="1.1"
   height="200mm"
   width="200mm">
  <metadata
     id="metadata65">
    <rdf:RDF>
      <cc:Work
         rdf:about="">
        <dc:format>image/svg+xml</dc:format>
        <dc:type
           rdf:resource="http://purl.org/dc/dcmitype/StillImage" />
        <dc:title></dc:title>
      </cc:Work>
    </rdf:RDF>
  </metadata>
  <defs
     id="defs5">
    <linearGradient
       id="linearGradient2755">
      <stop
         id="stop2751"
         offset="0"
         style="stop-color:#004dbf;stop-opacity:1;" />
      <stop
         id="stop2753"
         offset="1"
         style="stop-color:#004dbf;stop-opacity:0;" />
    </linearGradient>
    <linearGradient
       osb:paint="solid"
       id="linearGradient1029">
      <stop
         id="stop1027"
         offset="0"
         style="stop-color:#0066ff;stop-opacity:1;" />
    </linearGradient>
    <linearGradient
       osb:paint="solid"
       id="linearGradient1023">
      <stop
         id="stop1021"
         offset="0"
         style="stop-color:#003380;stop-opacity:1;" />
    </linearGradient>
    <linearGradient
       osb:paint="solid"
       id="linearGradient1017">
      <stop
         id="stop1015"
         offset="0"
         style="stop-color:#0066ff;stop-opacity:1;" />
    </linearGradient>
    <linearGradient
       osb:paint="solid"
       id="linearGradient1011">
      <stop
         id="stop1009"
         offset="0"
         style="stop-color:#003380;stop-opacity:1;" />
    </linearGradient>
    <filter
       color-interpolation-filters="sRGB"
       height="1"
       width="1"
       y="0"
       x="0"
       id="a">
      <feGaussianBlur
         id="feGaussianBlur2" />
    </filter>
    <radialGradient
       gradientUnits="userSpaceOnUse"
       gradientTransform="matrix(1,0,0,4.7208409,3.0697978,-580.73414)"
       r="3.1823695"
       fy="153.50894"
       fx="-15.239366"
       cy="153.50894"
       cx="-15.239366"
       id="radialGradient2775"
       xlink:href="#linearGradient2755" />
  </defs>
  <g
     id="g59"
     transform="matrix(2.0166 0 0 2.0568 -27.6 -212.89)">
    <path
       style="fill:#0055d4;stroke-width:1.54307055"
       id="path21"
       d="m 53.690154,99.733353 h -9.364752 c -5.649673,0.795747 -8.071006,4.112687 -8.239859,8.657137 l 0.149938,89.82883 c 0.776073,3.39137 3.731251,6.15168 7.940046,7.09571 l 71.163933,0.14207 v -19.89588 l -61.563897,0.28948 z" />
    <path
       style="fill:#2a7fff;stroke-width:1.5790323"
       id="path23"
       d="m 53.244636,99.733353 0.08665,90.178637 62.007824,-0.30312 V 99.733743 Z" />
    <path
       style="fill:#ffffff;stroke-width:1.366418"
       id="path25"
       d="m 115.33911,189.60887 c 0,0 0.62753,12.5692 -0.28272,12.69403 -0.54805,0.0751 -68.978321,-0.26005 -68.978321,-0.26005 -3.773604,-0.18537 -6.469836,-3.73496 -6.546454,-6.29507 0.204428,-3.0727 1.702401,-5.4097 6.674649,-5.99768 z" />
    <flowRoot
       id="flowRoot39"
       xml:space="preserve"
       style="line-height:1.25"
       word-spacing="0px"
       letter-spacing="0px"
       font-size="40px"
       font-family="sans-serif"
       fill="#000000"
       transform="scale(.26458)"><flowRegion
         id="flowRegion35"><rect
           id="rect33"
           height="40"
           width="33.214"
           y="476.81"
           x="-273.93" /></flowRegion><flowPara
         id="flowPara37">dD H</flowPara></flowRoot>    <path
       id="rect57"
       d="m 68.688422,116.84749 c -0.229134,0 -0.413904,0.17443 -0.413904,0.39147 v 11.61401 H 56.72585 c -0.246628,0 -0.445391,0.18804 -0.445391,0.42165 v 9.44581 c 0,0.23362 0.198763,0.42166 0.445391,0.42166 h 11.548668 v 11.90973 c 0,0.21705 0.18477,0.39195 0.413904,0.39195 h 9.264326 c 0.229136,0 0.413398,-0.1749 0.413398,-0.39195 v -11.90973 h 11.401898 c 0.24663,0 0.44488,-0.18804 0.44488,-0.42166 v -9.44581 c 0,-0.23361 -0.19825,-0.42165 -0.44488,-0.42165 H 78.366146 v -11.61401 c 0,-0.21704 -0.184262,-0.39147 -0.413398,-0.39147 z m 22.085179,22.59034 c -0.229134,0 -0.413397,0.1749 -0.413397,0.39194 v 11.614 H 78.811537 c -0.24663,0 -0.445391,0.18805 -0.445391,0.42166 v 9.44534 c 0,0.23361 0.198761,0.42165 0.445391,0.42165 h 11.548667 v 11.90973 c 0,0.21704 0.184263,0.39196 0.413397,0.39196 h 9.264329 c 0.22913,0 0.4139,-0.17492 0.4139,-0.39196 v -11.90973 h 11.40139 c 0.24663,0 0.44539,-0.18804 0.44539,-0.42165 v -9.44534 c 0,-0.23361 -0.19876,-0.42166 -0.44539,-0.42166 h -11.40139 v -11.614 c 0,-0.21704 -0.18477,-0.39194 -0.4139,-0.39194 z"
       style="fill:#ffffff;stroke-width:1.70636189" />
  </g>
</svg>
