<?xml version="1.0" encoding="UTF-8"?>
<svg width="200" height="200" version="1.1" viewBox="0 0 52.916665 52.916668" xmlns="http://www.w3.org/2000/svg" xmlns:cc="http://creativecommons.org/ns#" xmlns:dc="http://purl.org/dc/elements/1.1/" xmlns:rdf="http://www.w3.org/1999/02/22-rdf-syntax-ns#">
<g transform="matrix(.72039 0 0 .7611 -114.14 -87.364)">
<flowRoot transform="scale(.26458)" fill="#000000" font-family="sans-serif" font-size="40px" letter-spacing="0px" word-spacing="0px" style="line-height:1.25" xml:space="preserve"><flowRegion><rect x="-273.93" y="476.81" width="33.214" height="40"/></flowRegion><flowPara>dD H</flowPara></flowRoot>
<path d="m227.74 182.8c-1.239-0.605-2.2757-1.1-2.3037-1.1-0.0442 0-1.881-0.87675-6.9271-3.3064-0.69216-0.33328-2.1031-0.99549-3.1354-1.4716-1.9192-0.88515-2.5396-1.3725-5.704-4.4811-0.32953-0.32372-2.0149-1.932-3.7453-3.5741-1.7304-1.642-3.3266-3.1604-3.547-3.3742-0.22047-0.21381-1.6693-1.5922-3.2197-3.063-3.6043-3.4194-3.5692-3.3859-5.1289-4.8857-0.72508-0.69717-2.7695-2.6426-4.5432-4.3231-1.7737-1.6805-3.2956-3.1346-3.3822-3.2313-0.0865-0.0967-1.6085-1.5431-3.3822-3.2142-1.7737-1.6712-3.3401-3.1507-3.481-3.2879-1.1229-1.0935-3.3912-3.2592-6.1148-5.8383-1.7737-1.6795-3.2602-3.0962-3.3035-3.1481-0.0433-0.052-1.6006-1.5355-3.4608-3.2968-5.756-5.4498-6.2072-5.9283-6.6034-7.0007-0.48002-1.2994-0.39755-3.1083 0.19364-4.2474 0.57868-1.1149 2.9413-3.3873 4.1981-4.0377 0.95237-0.49284 1.1081-0.5242 2.5956-0.52261 1.435 2e-3 1.6631 0.0438 2.4476 0.45338 1.0156 0.53018 1.3496 0.80827 3.8541 3.2085 2.6175 2.5086 4.2599 4.0762 7.6162 7.2694 1.5914 1.5141 3.0418 2.9013 3.2231 3.0826 0.18129 0.18134 1.7454 1.67 3.4758 3.308s3.328 3.1533 3.5503 3.3671c0.93121 0.89576 3.5568 3.393 6.1974 5.8946 1.5526 1.4708 2.9677 2.8187 3.1446 2.9952s1.7729 1.6964 3.5465 3.3774c1.7737 1.681 3.2602 3.0989 3.3035 3.1509 0.0593 0.0713 3.9304 3.7518 7.0173 6.6718 2.9852 2.8239 6.3177 6.0162 7.5584 7.2404 1.5101 1.49 1.6621 1.7015 2.773 3.8574 0.64642 1.2546 1.5275 2.9535 1.9579 3.7754s1.2639 2.4147 1.8521 3.5395c0.58823 1.1248 1.5543 2.9536 2.1469 4.064 1.1159 2.0913 1.2707 2.6762 0.80206 3.0319-0.52343 0.39734-1.2035 0.22431-3.4719-0.88334zm-0.55567-3.8136c-0.46357-0.88683-0.97833-1.8344-1.1439-2.1056l-0.30107-0.49321-1.0588 1.0031c-0.58234 0.5517-1.0561 1.0568-1.0527 1.1224 3e-3 0.0656 0.47128 0.33171 1.0399 0.59127 0.56859 0.25956 1.4684 0.69929 1.9996 0.97718 0.5312 0.27789 1.0545 0.50796 1.1628 0.51125 0.11384 3e-3 -0.15885-0.67479-0.64583-1.6064zm-4.0478-2.9339c1.3072-1.2138 1.5745-1.538 1.4915-1.8091-0.18323-0.59886-2.6415-5.1338-2.7598-5.0912-0.0637 0.0229-1.1543 1.0327-2.4236 2.244s-2.583 2.4622-2.9194 2.7799c-0.3364 0.31768-0.61164 0.61792-0.61164 0.66719 0 0.0493 0.90256 0.51298 2.0057 1.0305 1.1031 0.51751 2.3242 1.1153 2.7136 1.3284 0.38934 0.21312 0.7536 0.37434 0.80947 0.35827 0.0559-0.0161 0.81824-0.6947 1.6942-1.508zm-8.0452-3.3236c1.6522-1.5139 1.6329-1.3974 0.42033-2.5442-0.57314-0.54207-1.1124-1.117-1.1984-1.2777-0.2201-0.41126 0.12951-1.1876 0.58645-1.3023 0.6097-0.15302 1.0494 0.085 2.1488 1.1631l1.0562 1.0358 0.34154-0.30479c1.5505-1.3837 2.1923-2.0411 2.1535-2.206-0.025-0.10631-0.96571-1.0615-2.0905-2.1227-1.1248-1.0612-2.7529-2.6107-3.6181-3.4434s-3.0597-2.9246-4.8766-4.6487c-1.8169-1.7241-3.3743-3.2135-3.4608-3.3097-0.0865-0.0962-1.6085-1.5433-3.3822-3.2158-1.7737-1.6725-3.9327-3.7235-4.7979-4.558-0.8652-0.83441-3.0243-2.8871-4.7979-4.5616-1.7737-1.6745-3.2956-3.1227-3.3822-3.2182-0.0865-0.0956-1.6085-1.5467-3.3822-3.2247-1.7737-1.678-3.9681-3.7704-4.8766-4.6496-0.90846-0.87928-3.1029-2.9692-4.8766-4.6443s-3.2814-3.1386-3.3506-3.2522c-0.2248-0.36927-0.48929-0.22497-1.7647 0.9628l-1.2557 1.1694 1.2585 1.2412c0.69216 0.68268 2.6742 2.583 4.4046 4.2229 1.7304 1.6399 3.328 3.1566 3.5503 3.3704 0.73017 0.70237 3.3262 3.1745 6.19 5.8946 1.5486 1.4708 2.9636 2.8218 3.1446 3.0022s1.7645 1.6898 3.519 3.3544c1.7545 1.6646 3.3504 3.1806 3.5465 3.3689 0.67648 0.64956 6.007 5.7124 6.5562 6.2269 0.30282 0.28371 1.7894 1.7017 3.3035 3.1511s3.022 2.8691 3.3509 3.1548c0.99636 0.86579 1.1689 1.4502 0.61562 2.0853-0.45469 0.52195-1.0631 0.34341-2.1195-0.62197-0.54-0.49349-1.0526-0.97937-1.1391-1.0797-0.0865-0.10036-1.6085-1.5478-3.3822-3.2166-1.7737-1.6687-3.2956-3.1141-3.3822-3.212-0.0865-0.0978-2.281-2.1909-4.8766-4.6512-2.5956-2.4603-4.7901-4.5524-4.8766-4.6491-0.0865-0.0967-1.6085-1.5458-3.3822-3.2201-1.7737-1.6743-3.9681-3.7607-4.8766-4.6364-0.90847-0.87568-2.3601-2.2605-3.2258-3.0773-0.86571-0.81683-3.0248-2.8697-4.7979-4.5619-1.7732-1.6922-3.5934-3.4165-4.045-3.8318l-0.82107-0.755-0.59472 0.47634c-0.32709 0.26198-0.93752 0.82735-1.3565 1.2564-0.74253 0.76032-0.75366 0.78574-0.44002 1.0054 0.17698 0.12396 1.7586 1.6041 3.5147 3.2892 1.7561 1.6851 4.6087 4.4045 6.3391 6.0431 1.7304 1.6386 3.217 3.0578 3.3035 3.1538 0.0865 0.096 1.6085 1.5444 3.3822 3.2188s3.9681 3.7605 4.8766 4.6358c0.90846 0.87537 2.4304 2.327 3.3822 3.2259 0.95172 0.89887 2.4383 2.315 3.3035 3.147 0.8652 0.83194 3.0243 2.8826 4.7979 4.5571s3.2956 3.1236 3.3822 3.2204c0.47716 0.5335 10.822 10.312 10.909 10.312 0.03 0 0.52035-0.42676 1.0896-0.94837zm-46.606-48.842 3.3035-3.218-1.4158-1.3353c-0.77868-0.7344-1.7036-1.4787-2.0554-1.654-0.86905-0.43314-2.3732-0.43336-3.2217-5.3e-4 -0.98783 0.50396-2.8225 2.3279-3.2401 3.2212-0.79085 1.6916-0.37914 2.8516 1.7164 4.8361 0.79875 0.7564 1.4877 1.3738 1.5309 1.3719 0.0433-2e-3 1.5652-1.4515 3.3822-3.2214z" fill="#fff"/>
<path d="m211.51 166.39c-0.46734-0.46734-0.84127-0.984-0.84127-1.1624 0-0.49074 0.51409-1.0246 0.9867-1.0246 0.49091 0 1.9581 1.1614 2.1695 1.7173 0.16909 0.44475-0.0399 1.071-0.40408 1.2108-0.66058 0.25349-1.0782 0.0915-1.9108-0.74115z" fill="#fff"/>
</g>
</svg>