<?xml version="1.0" encoding="UTF-8" standalone="no"?>
<svg
   xmlns:dc="http://purl.org/dc/elements/1.1/"
   xmlns:cc="http://creativecommons.org/ns#"
   xmlns:rdf="http://www.w3.org/1999/02/22-rdf-syntax-ns#"
   xmlns:svg="http://www.w3.org/2000/svg"
   xmlns="http://www.w3.org/2000/svg"
   width="210mm"
   height="297mm"
   viewBox="0 0 210 297"
   version="1.1"
   id="svg8">
  <defs
     id="defs2">
    <filter
       style="color-interpolation-filters:sRGB"
       id="filter1079"
       x="-0.061318228"
       width="1.1226365"
       y="-0.48527757"
       height="1.9705551">
      <feGaussianBlur
         stdDeviation="0.78704653"
         id="feGaussianBlur1081" />
    </filter>
    <filter
       style="color-interpolation-filters:sRGB"
       id="filter1083"
       x="-0.48527757"
       width="1.9705551"
       y="-0.061318228"
       height="1.1226365">
      <feGaussianBlur
         stdDeviation="0.78704653"
         id="feGaussianBlur1085" />
    </filter>
    <filter
       style="color-interpolation-filters:sRGB"
       id="filter1087"
       x="-0.063016267"
       width="1.1260325"
       y="-0.15691716"
       height="1.3138343">
      <feGaussianBlur
         stdDeviation="1.9359246"
         id="feGaussianBlur1089" />
    </filter>
    <filter
       style="color-interpolation-filters:sRGB"
       id="filter1122"
       x="-0.05779952"
       width="1.115599"
       y="-0.041041662"
       height="1.0820833">
      <feGaussianBlur
         stdDeviation="1.2038599"
         id="feGaussianBlur1124" />
    </filter>
    <filter
       style="color-interpolation-filters:sRGB"
       id="filter1079-1"
       x="-0.061318226"
       width="1.1226366"
       y="-0.48527756"
       height="1.9705551">
      <feGaussianBlur
         stdDeviation="0.78704653"
         id="feGaussianBlur1081-8" />
    </filter>
    <filter
       style="color-interpolation-filters:sRGB"
       id="filter1083-3"
       x="-0.48527756"
       width="1.9705551"
       y="-0.061318226"
       height="1.1226366">
      <feGaussianBlur
         stdDeviation="0.78704653"
         id="feGaussianBlur1085-7" />
    </filter>
    <filter
       style="color-interpolation-filters:sRGB"
       id="filter1087-0"
       x="-0.063016266"
       width="1.1260325"
       y="-0.15691715"
       height="1.3138343">
      <feGaussianBlur
         stdDeviation="1.9359246"
         id="feGaussianBlur1089-6" />
    </filter>
  </defs>
  <metadata
     id="metadata5">
    <rdf:RDF>
      <cc:Work
         rdf:about="">
        <dc:format>image/svg+xml</dc:format>
        <dc:type
           rdf:resource="http://purl.org/dc/dcmitype/StillImage" />
        <dc:title></dc:title>
      </cc:Work>
    </rdf:RDF>
  </metadata>
  <g
     transform="translate(-4.2473517,2.0450212)"
     id="layer1">
    <flowRoot
       xml:space="preserve"
       id="flowRoot916"
       style="font-style:normal;font-weight:normal;font-size:40px;line-height:1.25;font-family:sans-serif;letter-spacing:0px;word-spacing:0px;fill:#000000;fill-opacity:1;stroke:none"
       transform="scale(0.26458333)"><flowRegion
         id="flowRegion918"><rect
           id="rect920"
           width="33.214287"
           height="40"
           x="-273.92856"
           y="476.80539" /></flowRegion><flowPara
         id="flowPara922">dD H</flowPara></flowRoot>    <path
       id="path311"
       d="m -48.145996,299.80093 c -0.732658,-0.42674 -0.778639,-2.87747 -0.778639,-41.49918 0,-31.33116 0.126365,-41.17203 0.533923,-41.57959 0.30298,-0.30298 1.753987,-0.53393 3.354573,-0.53393 4.012078,0 11.037663,-0.82743 13.909021,-1.63813 1.345936,-0.38001 5.460278,-2.04948 9.142979,-3.70994 13.0643866,-5.89049 14.5097022,-6.34095 20.2543513,-6.31259 8.2775583,0.0409 14.7953067,3.3075 17.7173677,8.8798 0.714441,1.36242 1.037847,1.26726 2.044258,-0.60153 0.999818,-1.85655 4.207155,-4.81173 6.458286,-5.95054 3.028662,-1.53216 6.736085,-2.30648 11.092024,-2.31666 5.096092,-0.0119 9.35234,1.26715 18.174438,5.46168 9.73029,4.62634 16.107394,6.18791 25.269925,6.18791 2.341875,0 2.908649,0.14827 3.289895,0.86063 0.307816,0.57516 0.460589,14.28973 0.460589,41.34745 0,36.21295 -0.0738,40.56063 -0.699187,41.18601 -0.629307,0.62931 -7.132926,0.69784 -65.072175,0.68566 -42.896898,-0.009 -64.632757,-0.16484 -65.151629,-0.46705 z m 11.35063,-5.3135 c 2.261029,-0.49487 4.611521,-1.07824 5.223309,-1.29638 5.687708,-2.02797 16.982292,-5.46758 20.022209,-6.09749 2.2079238,-0.45751 5.8189756,-0.79281 8.6762904,-0.80563 4.7272098,-0.0212 5.0082502,0.0328 8.2313514,1.58143 1.8353696,0.88187 4.3344729,2.43359 5.5535672,3.44827 1.219094,1.01468 2.370373,1.84487 2.558394,1.84487 0.188023,0 0.34186,-16.59406 0.34186,-36.87569 v -36.87568 l -2.92122,-3.15519 c -2.106763,-2.2755 -3.7475765,-3.56212 -5.8851479,-4.61477 -2.6469551,-1.3035 -3.3694978,-1.4596 -6.7561829,-1.4596 -3.8958414,0 -6.4242129,0.61418 -10.9112582,2.65049 -5.966047,2.70751 -9.127376,4.01232 -11.568387,4.77473 -4.219173,1.31779 -11.7045,2.57176 -15.395646,2.57913 l -3.38232,0.007 -0.28575,3.67073 c -0.157162,2.01891 -0.286951,18.93768 -0.288417,37.59726 l -0.0027,33.92652 h 1.339524 c 0.736738,0 3.18946,-0.4049 5.450491,-0.89976 z M 77.437741,279.88751 c 0,-8.52483 -0.132818,-25.4436 -0.295151,-37.59726 l -0.295153,-22.09757 h -3.411442 c -6.80225,0 -16.389969,-2.37356 -24.19545,-5.98988 -7.593399,-3.51806 -9.079674,-3.95163 -13.62697,-3.97525 -3.597555,-0.0187 -4.525029,0.13364 -6.229133,1.02302 -3.307196,1.72604 -6.093426,3.96616 -7.764563,6.24271 l -1.579134,2.15121 v 36.99769 36.9977 l 2.644159,-2.20049 c 8.46615,-7.0456 15.824231,-7.10213 36.272228,-0.27863 4.859711,1.62168 9.21656,2.8223 14.253697,3.92788 0.489434,0.10743 1.64071,0.21855 2.558394,0.24694 l 1.668518,0.0516 z"
       style="opacity:1;fill:#ffffff;fill-opacity:1;fill-rule:nonzero;stroke:none;stroke-width:1.77975178;stroke-miterlimit:6.66666651;stroke-dasharray:none;stroke-dashoffset:0;stroke-opacity:0.99111131" />
  </g>
</svg>
