<?xml version="1.0" encoding="UTF-8"?>
<svg width="297mm" height="210mm" version="1.1" viewBox="0 0 297 210" xmlns="http://www.w3.org/2000/svg" xmlns:cc="http://creativecommons.org/ns#" xmlns:dc="http://purl.org/dc/elements/1.1/" xmlns:rdf="http://www.w3.org/1999/02/22-rdf-syntax-ns#" xmlns:xlink="http://www.w3.org/1999/xlink">
<g transform="translate(0,-87)">
<path d="m32.27 168.08c-0.09768 0-0.17622 0.0785-0.17622 0.17622v19.95h-19.95c-0.09768 0-0.17622 0.0785-0.17622 0.17622v23.038c0 0.0977 0.07854 0.17622 0.17622 0.17622h19.95v19.95c0 0.0977 0.07854 0.17622 0.17622 0.17622h23.037c0.09768 0 0.17622-0.0785 0.17622-0.17622v-19.95h19.95c0.09768 0 0.17622-0.0785 0.17622-0.17622v-23.038c0-0.0977-0.07854-0.17622-0.17622-0.17622h-19.95v-19.95c0-0.0977-0.07854-0.17622-0.17622-0.17622z" fill="#00112b" fill-opacity=".24623" opacity=".73"/>
<path d="m229.57 117.22c-0.0459 0-0.0828 0.0409-0.0828 0.0919v10.401h-9.3783c-0.0459 0-0.0828 0.0409-0.0828 0.0919v12.011c0 0.0509 0.0369 0.0919 0.0828 0.0919h9.3783v10.401c0 0.0509 0.0369 0.0919 0.0828 0.0919h10.829c0.0459 0 0.0828-0.0409 0.0828-0.0919v-10.401h9.3783c0.0459 0 0.0828-0.0409 0.0828-0.0919v-12.011c0-0.0509-0.0369-0.0919-0.0828-0.0919h-9.3783v-10.401c0-0.0509-0.0369-0.0919-0.0828-0.0919z" fill="#00112b" fill-opacity=".24623" opacity=".73"/>
<path d="m257.72 153.12c-0.061 0-0.10995 0.0517-0.10995 0.11598v13.13h-12.448c-0.061 0-0.10995 0.0517-0.10995 0.11597v15.162c0 0.0643 0.049 0.11598 0.10995 0.11598h12.448v13.13c0 0.0643 0.049 0.11597 0.10995 0.11597h14.374c0.061 0 0.10995-0.0517 0.10995-0.11597v-13.13h12.448c0.0609 0 0.10994-0.0517 0.10994-0.11598v-15.162c0-0.0643-0.049-0.11597-0.10994-0.11597h-12.448v-13.13c0-0.0643-0.049-0.11598-0.10995-0.11598z" fill="#001028" fill-opacity=".24706" opacity=".73"/>
</g>
</svg>