<?xml version="1.0" encoding="UTF-8" standalone="no"?>
<svg
   xmlns:dc="http://purl.org/dc/elements/1.1/"
   xmlns:cc="http://creativecommons.org/ns#"
   xmlns:rdf="http://www.w3.org/1999/02/22-rdf-syntax-ns#"
   xmlns:svg="http://www.w3.org/2000/svg"
   xmlns="http://www.w3.org/2000/svg"
   xmlns:xlink="http://www.w3.org/1999/xlink"
   xmlns:sodipodi="http://sodipodi.sourceforge.net/DTD/sodipodi-0.dtd"
   xmlns:inkscape="http://www.inkscape.org/namespaces/inkscape"
   id="svg8"
   version="1.1"
   viewBox="0 0 52.916666 52.916666"
   height="200"
   width="200"
   sodipodi:docname="solucion.svg"
   inkscape:export-filename="C:\Users\Juan\Desktop\profile.png"
   inkscape:export-xdpi="312"
   inkscape:export-ydpi="312"
   inkscape:version="0.92.4 (5da689c313, 2019-01-14)">
  <sodipodi:namedview
     pagecolor="#ffffff"
     bordercolor="#666666"
     borderopacity="1"
     objecttolerance="10"
     gridtolerance="10"
     guidetolerance="10"
     inkscape:pageopacity="0"
     inkscape:pageshadow="2"
     inkscape:window-width="1366"
     inkscape:window-height="745"
     id="namedview21"
     showgrid="false"
     inkscape:snap-page="true"
     inkscape:zoom="2.36"
     inkscape:cx="83.577116"
     inkscape:cy="98.8393"
     inkscape:window-x="-8"
     inkscape:window-y="-8"
     inkscape:window-maximized="1"
     inkscape:current-layer="layer1" />
  <defs
     id="defs2">
    <linearGradient
       id="linearGradient950">
      <stop
         id="stop946"
         offset="0"
         style="stop-color:#00112b;stop-opacity:1;" />
      <stop
         id="stop948"
         offset="1"
         style="stop-color:#00112b;stop-opacity:0;" />
    </linearGradient>
    <linearGradient
       gradientUnits="userSpaceOnUse"
       y2="40.900974"
       x2="99.500023"
       y1="140.90608"
       x1="103.54063"
       id="linearGradient952"
       xlink:href="#linearGradient950" />
    <filter
       height="1.0502446"
       y="-0.025122296"
       width="1.0459474"
       x="-0.02297369"
       id="filter980"
       style="color-interpolation-filters:sRGB">
      <feGaussianBlur
         id="feGaussianBlur982"
         stdDeviation="1.6922584" />
    </filter>
    <filter
       height="1.0481129"
       y="-0.024056453"
       width="1.0478876"
       x="-0.023943811"
       id="filter1031"
       style="color-interpolation-filters:sRGB">
      <feGaussianBlur
         id="feGaussianBlur1033"
         stdDeviation="1.671233" />
    </filter>
    <filter
       height="1.0496106"
       y="-0.024805317"
       width="1.0464907"
       x="-0.023245329"
       id="filter1054"
       style="color-interpolation-filters:sRGB">
      <feGaussianBlur
         id="feGaussianBlur1056"
         stdDeviation="0.45799253" />
    </filter>
  </defs>
  <metadata
     id="metadata5">
    <rdf:RDF>
      <cc:Work
         rdf:about="">
        <dc:format>image/svg+xml</dc:format>
        <dc:type
           rdf:resource="http://purl.org/dc/dcmitype/StillImage" />
        <dc:title />
      </cc:Work>
    </rdf:RDF>
  </metadata>
  <g
     transform="translate(0,-244.08334)"
     id="layer1">
    <path
       id="path1023-0"
       d="m 22.952942,293.09209 c -2.347683,-0.46243 -4.598473,-2.14246 -5.601869,-4.18134 -2.266485,-4.60543 0.07095,-10.28441 4.376042,-10.63192 2.380716,-0.19218 4.998787,1.05907 7.569463,3.61765 0.700594,0.6973 1.299594,1.26782 1.331104,1.26782 0.03151,0 0.210754,-0.48578 0.398309,-1.0795 1.158703,-3.66794 0.994251,-6.78844 -0.490712,-9.31125 -0.656548,-1.11541 -2.605004,-3.01284 -5.046703,-4.91453 -3.192103,-2.48614 -4.326628,-3.77987 -4.954896,-5.65022 -0.364503,-1.08512 -0.421831,-2.92276 -0.131944,-4.22935 l 0.190021,-0.85647 -0.395613,-0.29226 c -0.217587,-0.16074 -1.320776,-1.23691 -2.451531,-2.39149 -1.428082,-1.45818 -2.244271,-2.18425 -2.672696,-2.3776 -1.665789,-0.75177 -3.541146,0.13187 -4.250927,2.00297 -0.337161,0.88882 -0.524681,3.165 -0.539866,6.55311 -0.0207,4.61836 -0.6697111,6.61482 -2.8503741,8.76817 -0.546532,0.53969 -0.993694,1.06549 -0.993694,1.16845 0,0.10296 0.491898,0.69116 1.093108,1.3071 0.851047,0.87191 1.214476,1.37478 1.64119,2.27087 0.8929751,1.87524 0.9645931,2.32534 1.1100201,6.97608 0.143798,4.59867 0.253694,5.5018 0.790051,6.49262 0.630382,1.16453 1.491896,1.59181 3.21239,1.59323 l 0.925164,7.9e-4 v 1.45968 1.45967 l -1.491774,-0.0787 c -1.212024,-0.0639 -1.616897,-0.14211 -2.158995,-0.41681 -0.867312,-0.4395 -1.9589801,-1.60448 -2.4218471,-2.58448 -0.689979,-1.46086 -0.78672,-2.12177 -0.929446,-6.34978 -0.170344,-5.04611 -0.354581,-6.42604 -1.057637,-7.92162 -0.814637,-1.73295 -1.986053,-2.56357 -3.615388,-2.56357 h -0.523368 v -1.62492 -1.62491 l 0.898433,-0.0839 c 1.770972,-0.16537 2.856784,-1.15122 3.561222,-3.23337 0.443008,-1.30941 0.583034,-2.70583 0.736482,-7.34462 0.139199,-4.20804 0.254682,-4.86889 1.144893,-6.55167 1.0303921,-1.94776 3.0994531,-3.08881 4.8767821,-2.68948 0.985215,0.22137 2.052112,1.02158 3.995991,2.99713 1.613752,1.64005 2.521202,2.45662 3.106438,2.79534 0.09545,0.0553 0.283854,-0.11459 0.468648,-0.42245 1.126695,-1.87705 2.88849,-3.38722 4.668051,-4.00134 2.523737,-0.87093 6.183288,-0.24769 7.751016,1.32004 0.981808,0.9818 1.505463,2.56501 1.372036,4.14816 -0.199871,2.37148 -1.387197,3.90573 -3.455924,4.46571 -1.730303,0.46837 -4.776492,0.0521 -6.674821,-0.91223 -0.741023,-0.37642 -0.839913,-0.34276 -0.729067,0.2481 0.261595,1.39442 1.19844,2.49433 4.184403,4.91274 4.641478,3.75924 6.604038,6.2467 7.565584,9.58906 0.278093,0.96666 0.314153,1.38048 0.304546,3.49506 -0.01011,2.22385 -0.04174,2.51538 -0.434255,4.002 -0.23285,0.88189 -0.710065,2.32003 -1.060477,3.19588 -0.725127,1.81241 -0.758219,1.64881 0.530916,2.62453 2.506413,1.89703 4.550097,1.94454 6.209448,0.14436 0.771025,-0.83647 0.841965,-1.28464 1.002646,-6.33464 0.15203,-4.77804 0.246298,-5.38343 1.120495,-7.19572 0.441859,-0.91601 0.792194,-1.39562 1.639054,-2.24386 0.592391,-0.59336 1.077073,-1.17274 1.077073,-1.28749 0,-0.11476 -0.478604,-0.70864 -1.063572,-1.31974 -1.231807,-1.28683 -1.96397,-2.56925 -2.371471,-4.15377 -0.227464,-0.88447 -0.297756,-1.81493 -0.40691,-5.38658 -0.135414,-4.43083 -0.225245,-5.14661 -0.78264,-6.23629 -0.543425,-1.06235 -1.28347,-1.45093 -2.943527,-1.54559 l -1.203801,-0.0686 v -1.43957 -1.43955 l 1.473409,0.0748 c 0.848508,0.0431 1.676863,0.16275 1.953122,0.28217 1.375582,0.59462 2.386597,1.83419 3.038446,3.72533 0.43189,1.253 0.475231,1.71535 0.661681,7.05849 0.162007,4.64261 0.518718,6.19751 1.729121,7.53728 0.678672,0.75122 1.379278,1.09093 2.457468,1.19162 l 0.885209,0.0827 v 1.62492 1.62491 h -0.52337 c -1.535843,0 -2.755445,0.82224 -3.517889,2.37171 -0.744676,1.51337 -0.874464,2.41068 -1.094214,7.56524 -0.125891,2.95284 -0.268266,4.9114 -0.388631,5.34609 -0.907634,3.27788 -3.001123,4.87909 -6.126106,4.6856 -0.650026,-0.0403 -1.534147,-0.20065 -2.000049,-0.36285 -0.701908,-0.24437 -2.888562,-1.37751 -3.989287,-2.06728 -0.281419,-0.17635 -0.358767,-0.13361 -1.17252,0.6478 -1.603901,1.54013 -3.159829,2.35967 -5.173663,2.72506 -1.269568,0.23034 -2.117742,0.22563 -3.358001,-0.0187 z m 3.188019,-3.81188 c 0.716989,-0.36333 1.748573,-1.29115 2.415604,-2.17262 l 0.386837,-0.5112 -0.893535,-1.06501 c -2.92271,-3.48358 -4.86574,-4.25813 -6.477589,-2.58214 -0.980036,1.01903 -1.147625,2.66632 -0.430599,4.23251 1.030637,2.25121 3.036393,3.09313 4.999282,2.09846 z m 4.432695,-30.94763 c 1.058831,-0.36517 1.640401,-1.12503 1.885778,-2.46388 0.253352,-1.38238 -0.33307,-2.45057 -1.692999,-3.08386 -0.883955,-0.41164 -2.46419,-0.44325 -3.290471,-0.0658 -1.114633,0.50913 -2.353268,2.31138 -2.498372,3.63521 l -0.06169,0.56284 0.857965,0.46758 c 1.761395,0.95994 3.671298,1.33714 4.799792,0.94794 z"
       style="opacity:1;fill:#000000;fill-opacity:1;fill-rule:nonzero;stroke:none;stroke-width:0.2741226;stroke-miterlimit:6.66666651;stroke-dasharray:none;stroke-dashoffset:0;stroke-opacity:1;filter:url(#filter1054)"
       inkscape:export-filename="C:\Users\Juan\Desktop\profile.png"
       inkscape:export-xdpi="307.97516"
       inkscape:export-ydpi="307.97516" />
    <path
       id="path20"
       d="m 51.988281,18.107422 c -5.264405,0.0097 -6.040825,0.711974 -8.794922,2.060547 -5.589017,2.736642 -9.717561,9.07001 -11.605468,17.804687 -0.681891,3.154848 -0.804977,5.259925 -1.066407,18.03711 -0.317896,15.536126 -0.688779,19.39652 -2.376953,24.787109 -2.627582,8.390249 -6.900431,12.311996 -13.779297,12.646484 l -3.125,0.152344 v 6.335938 6.333979 l 3.056641,0.19141 c 5.684221,0.35463 9.627702,3.22001 12.304687,8.94531 2.973724,6.35997 3.562269,10.64141 3.9375,28.64258 0.31078,14.90937 0.545507,17.33627 2.166016,22.29883 2.340577,7.16769 6.950635,12.41268 12.636719,14.37891 v 0.002 c 1.375687,0.4758 3.010897,0.6233 7.058594,0.63086 l 5.267578,0.0117 v -5.53516 -5.53515 h -3.496094 c -7.264207,0 -10.556652,-1.84476 -12.935547,-7.24219 -1.640549,-3.72219 -1.843352,-5.73843 -2.136719,-21.33008 -0.292947,-15.56859 -0.57131,-18.55007 -2.205078,-23.57227 -0.933456,-2.86945 -2.822247,-6.68956 -4.589843,-9.28515 -1.421442,-2.08732 -5.435075,-6.19889 -6.945313,-7.11524 -0.648333,-0.39341 -0.90625,-0.85705 -0.90625,-1.6289 0,-0.90108 0.42355,-1.430609 2.568359,-3.220706 4.325717,-3.610281 7.808318,-8.802897 9.701172,-14.462891 1.810812,-5.414702 2.070747,-8.048965 2.369141,-24.107422 0.252673,-13.597644 0.350378,-15.280844 1.042969,-18.001953 0.952785,-3.74332 2.239659,-6.143087 4.238281,-7.902344 4.438861,-3.80751 8.871896,-4.682235 14.701172,-0.845703 7.511794,6.456662 8.81919,10.550671 18.447265,17.76127 C 64.222776,96.885644 138.34447,85.829783 115.54233,147.76039 97.752134,126.109 73.287206,120.54646 63.625,144.06839 c -11.224609,37.28713 33.660887,57.33413 58.50064,27.89277 10.89661,6.41131 19.88284,13.21757 33.8685,8.76348 v -0.002 c 5.68608,-1.96623 10.29614,-7.21122 12.63672,-14.37891 1.62051,-4.96256 1.85719,-7.38946 2.16797,-22.29883 0.37523,-18.00117 0.96182,-22.28261 3.93555,-28.64258 2.67698,-5.7253 6.62046,-8.59068 12.30468,-8.94531 l 3.0586,-0.19141 v -6.333979 -6.335938 l -3.125,-0.152344 c -6.87887,-0.334488 -11.15367,-4.256235 -13.78125,-12.646484 -1.68818,-5.390589 -2.05711,-9.250983 -2.375,-24.787109 -0.26143,-12.777185 -0.38647,-14.882262 -1.06836,-18.03711 -1.88791,-8.734677 -6.01645,-15.068045 -11.60547,-17.804687 -2.7541,-1.348573 -4.47778,-1.640677 -9.74219,-1.650391 l -4.73242,-0.0078 v 5.480468 5.480469 l 4.19922,0.226563 c 4.95413,0.266456 6.99338,0.878197 9.09765,2.730468 1.99863,1.759257 3.2855,4.159024 4.23828,7.902344 0.6926,2.721109 0.7903,4.404309 1.04297,18.001953 0.2984,16.058457 0.55638,18.69272 2.36719,24.107422 1.89286,5.659994 5.37741,10.85261 9.70313,14.462891 2.14481,1.790097 2.5664,2.319626 2.5664,3.220704 0,0.77185 -0.25791,1.23549 -0.90625,1.6289 -1.51024,0.91635 -5.52387,5.02792 -6.94531,7.11524 -1.7676,2.59559 -3.65639,6.4157 -4.58984,9.28515 -1.63377,5.0222 -1.91213,8.00368 -2.20508,23.57227 -0.29337,15.59165 -0.49617,17.60789 -2.13672,21.33008 -11.76375,13.8738 -23.64504,1.62701 -29.10882,-2.88013 C 163.71222,89.049505 92.403654,79.312626 93.521671,57.026807 112.13919,66.630024 136.49309,65.412186 134.65039,39.753906 132.69349,28.452627 126.3447,25.376024 119.25,23.261719 101.59972,18.637307 88.133371,27.020906 81.087891,40.662109 73.305212,35.804968 70.839712,31.406069 66.146484,26.902344 62.503889,23.406825 60.001028,21.212849 57.119141,19.71875 55.644203,18.722072 54.292832,18.424291 51.988281,18.107422 Z m 58.591799,13.501953 c 5.61476,0.200493 11.8214,4.039442 12.14016,9.991135 -0.91736,17.213793 -16.75003,14.2801 -28.570651,6.398681 0.715733,-5.773063 3.039235,-10.439804 8.127751,-14.421066 2.77566,-2.0218 5.75057,-2.059883 8.30274,-1.96875 z M 86.360278,143.99294 c 5.012988,-0.60149 10.226886,0.813 22.524642,16.63331 -21.647891,31.59442 -42.531074,-10.86346 -22.524642,-16.63331 z"
       style="opacity:1;fill:#0055d4;fill-opacity:1;fill-rule:nonzero;stroke:#ffeaff;stroke-width:2;stroke-miterlimit:6.66666651;stroke-dasharray:none;stroke-dashoffset:0;stroke-opacity:1"
       transform="matrix(0.26458333,0,0,0.26458333,0,244.08334)"
       inkscape:export-filename="C:\Users\Juan\Desktop\profile.png"
       inkscape:export-xdpi="307.97516"
       inkscape:export-ydpi="307.97516" />
    <path
       id="path1023"
       d="m 24.011277,293.09209 c -2.347683,-0.46243 -4.598473,-2.14246 -5.601869,-4.18134 -2.266485,-4.60543 0.07095,-10.28441 4.376042,-10.63192 2.380716,-0.19218 4.998787,1.05907 7.569463,3.61765 0.700595,0.6973 1.299594,1.26782 1.331105,1.26782 0.03151,0 0.210752,-0.48578 0.398309,-1.0795 1.158701,-3.66794 0.994249,-6.78844 -0.490712,-9.31125 -0.65655,-1.11541 -2.605005,-3.01284 -5.046704,-4.91453 -3.192103,-2.48614 -4.326628,-3.77987 -4.954896,-5.65022 -0.364503,-1.08512 -0.421831,-2.92276 -0.131944,-4.22935 l 0.190021,-0.85647 -0.395613,-0.29226 c -0.217587,-0.16074 -1.320776,-1.23691 -2.451531,-2.39149 -1.428082,-1.45818 -2.244271,-2.18425 -2.672696,-2.3776 -1.665789,-0.75177 -3.541146,0.13187 -4.250927,2.00297 -0.337161,0.88882 -0.524681,3.165 -0.539866,6.55311 -0.0207,4.61836 -0.669711,6.61482 -2.8503746,8.76817 -0.546532,0.53969 -0.993694,1.06549 -0.993694,1.16845 0,0.10296 0.491898,0.69116 1.093108,1.3071 0.8510472,0.87191 1.2144759,1.37478 1.6411896,2.27087 0.892976,1.87524 0.964594,2.32534 1.110021,6.97608 0.143798,4.59867 0.253694,5.5018 0.790051,6.49262 0.630382,1.16453 1.491896,1.59181 3.21239,1.59323 l 0.925164,7.9e-4 v 1.45968 1.45967 l -1.491774,-0.0787 c -1.212024,-0.0639 -1.616897,-0.14211 -2.158995,-0.41681 -0.867312,-0.4395 -1.95898,-1.60448 -2.421848,-2.58448 -0.6899787,-1.46086 -0.7867194,-2.12177 -0.9294454,-6.34978 -0.170344,-5.04611 -0.3545812,-6.42604 -1.0576372,-7.92162 -0.814637,-1.73295 -1.986053,-2.56357 -3.615388,-2.56357 h -0.523368 v -1.62492 -1.62491 l 0.898433,-0.0839 c 1.770972,-0.16537 2.856784,-1.15122 3.561222,-3.23337 0.4430082,-1.30941 0.5830342,-2.70583 0.7364822,-7.34462 0.139199,-4.20804 0.2546817,-4.86889 1.1448924,-6.55167 1.030393,-1.94776 3.099454,-3.08881 4.876783,-2.68948 0.985215,0.22137 2.052112,1.02158 3.995991,2.99713 1.613752,1.64005 2.521202,2.45662 3.106438,2.79534 0.09545,0.0553 0.283854,-0.11459 0.468648,-0.42245 1.126695,-1.87705 2.88849,-3.38722 4.668051,-4.00134 2.523737,-0.87093 6.183287,-0.24769 7.751017,1.32004 0.981806,0.9818 1.505461,2.56501 1.372034,4.14816 -0.199871,2.37148 -1.387197,3.90573 -3.455924,4.46571 -1.730303,0.46837 -4.776491,0.0521 -6.67482,-0.91223 -0.741023,-0.37642 -0.839913,-0.34276 -0.729067,0.2481 0.261595,1.39442 1.19844,2.49433 4.184403,4.91274 4.641477,3.75924 6.604037,6.2467 7.565583,9.58906 0.278093,0.96666 0.314153,1.38048 0.304546,3.49506 -0.01011,2.22385 -0.04174,2.51538 -0.434255,4.002 -0.232849,0.88189 -0.710063,2.32003 -1.060477,3.19588 -0.725127,1.81241 -0.758219,1.64881 0.530918,2.62453 2.506412,1.89703 4.550096,1.94454 6.209446,0.14436 0.771027,-0.83647 0.841967,-1.28464 1.002646,-6.33464 0.15203,-4.77804 0.246298,-5.38343 1.120497,-7.19572 0.441857,-0.91601 0.792192,-1.39562 1.639052,-2.24386 0.592391,-0.59336 1.077074,-1.17274 1.077074,-1.28749 0,-0.11476 -0.478605,-0.70864 -1.063572,-1.31974 -1.231808,-1.28683 -1.963971,-2.56925 -2.371471,-4.15377 -0.227465,-0.88447 -0.297755,-1.81493 -0.406911,-5.38658 -0.135414,-4.43083 -0.225243,-5.14661 -0.78264,-6.23629 -0.543423,-1.06235 -1.283468,-1.45093 -2.943527,-1.54559 l -1.203801,-0.0686 v -1.43957 -1.43955 l 1.473409,0.0748 c 0.848508,0.0431 1.676863,0.16275 1.953122,0.28217 1.375582,0.59462 2.386598,1.83419 3.038446,3.72533 0.43189,1.253 0.475232,1.71535 0.661683,7.05849 0.162007,4.64261 0.518716,6.19751 1.729119,7.53728 0.678674,0.75122 1.379278,1.09093 2.457468,1.19162 l 0.885209,0.0827 v 1.62492 1.62491 h -0.52337 c -1.535843,0 -2.755445,0.82224 -3.517889,2.37171 -0.744675,1.51337 -0.874462,2.41068 -1.094214,7.56524 -0.125891,2.95284 -0.268266,4.9114 -0.38863,5.34609 -0.907635,3.27788 -3.001122,4.87909 -6.126107,4.6856 -0.650026,-0.0403 -1.534147,-0.20065 -2.000049,-0.36285 -0.701908,-0.24437 -2.888562,-1.37751 -3.989287,-2.06728 -0.281419,-0.17635 -0.358767,-0.13361 -1.17252,0.6478 -1.603899,1.54013 -3.159828,2.35967 -5.173662,2.72506 -1.269568,0.23034 -2.117742,0.22563 -3.358001,-0.0187 z m 3.188019,-3.81188 c 0.716989,-0.36333 1.748573,-1.29115 2.415604,-2.17262 l 0.386837,-0.5112 -0.893535,-1.06501 c -2.92271,-3.48358 -4.86574,-4.25813 -6.477589,-2.58214 -0.980036,1.01903 -1.147625,2.66632 -0.430599,4.23251 1.030637,2.25121 3.036393,3.09313 4.999282,2.09846 z m 4.432695,-30.94763 c 1.05883,-0.36517 1.6404,-1.12503 1.885778,-2.46388 0.253351,-1.38238 -0.333071,-2.45057 -1.693,-3.08386 -0.883955,-0.41164 -2.464189,-0.44325 -3.29047,-0.0658 -1.114633,0.50913 -2.353268,2.31138 -2.498372,3.63521 l -0.06169,0.56284 0.857965,0.46758 c 1.761395,0.95994 3.671298,1.33714 4.799791,0.94794 z"
       style="opacity:0.606;fill:#2affd5;fill-opacity:0.61809046;fill-rule:nonzero;stroke:none;stroke-width:0.2741226;stroke-miterlimit:6.66666651;stroke-dasharray:none;stroke-dashoffset:0;stroke-opacity:1"
       inkscape:export-filename="C:\Users\Juan\Desktop\profile.png"
       inkscape:export-xdpi="307.97516"
       inkscape:export-ydpi="307.97516" />
  </g>
  <g
     id="layer2" />
</svg>
